<svg width="24" height="24" viewBox="0 0 24 24" fill="none" xmlns="http://www.w3.org/2000/svg">
<g clip-path="url(#clip0_157_760)">
<path d="M2.5714 10.2852H4.28569C4.51302 10.2852 4.73103 10.3755 4.89178 10.5362C5.05252 10.697 5.14283 10.915 5.14283 11.1423V15.428C5.14283 15.6553 5.05252 15.8734 4.89178 16.0341C4.73103 16.1949 4.51302 16.2852 4.28569 16.2852H2.5714C2.11675 16.2852 1.68071 16.1045 1.35922 15.7831C1.03773 15.4616 0.857117 15.0255 0.857117 14.5709V11.9994C0.857117 11.5448 1.03773 11.1088 1.35922 10.7873C1.68071 10.4658 2.11675 10.2852 2.5714 10.2852V10.2852Z" stroke="#031600" stroke-width="1.5" stroke-linecap="round" stroke-linejoin="round"/>
<path d="M21.4285 16.2852H19.7143C19.4869 16.2852 19.2689 16.1949 19.1082 16.0341C18.9474 15.8734 18.8571 15.6553 18.8571 15.428V11.1423C18.8571 10.915 18.9474 10.697 19.1082 10.5362C19.2689 10.3755 19.4869 10.2852 19.7143 10.2852H21.4285C21.8832 10.2852 22.3192 10.4658 22.6407 10.7873C22.9622 11.1088 23.1428 11.5448 23.1428 11.9994V14.5709C23.1428 15.0255 22.9622 15.4616 22.6407 15.7831C22.3192 16.1045 21.8832 16.2852 21.4285 16.2852V16.2852Z" stroke="#031600" stroke-width="1.5" stroke-linecap="round" stroke-linejoin="round"/>
<path d="M16.2857 20.9994C17.195 20.9994 18.0671 20.6382 18.7101 19.9952C19.3531 19.3523 19.7143 18.4802 19.7143 17.5709V16.2852" stroke="#031600" stroke-width="1.5" stroke-linecap="round" stroke-linejoin="round"/>
<path d="M14.1428 18.8555C14.7112 18.8555 15.2562 19.0812 15.6581 19.4831C16.0599 19.885 16.2857 20.43 16.2857 20.9983C16.2857 21.5666 16.0599 22.1117 15.6581 22.5136C15.2562 22.9154 14.7112 23.1412 14.1428 23.1412H11.5714C11.0031 23.1412 10.4581 22.9154 10.0562 22.5136C9.65432 22.1117 9.42856 21.5666 9.42856 20.9983C9.42856 20.43 9.65432 19.885 10.0562 19.4831C10.4581 19.0812 11.0031 18.8555 11.5714 18.8555H14.1428Z" stroke="#031600" stroke-width="1.5" stroke-linecap="round" stroke-linejoin="round"/>
<path d="M4.28568 10.284V8.56975C4.28568 6.5238 5.09843 4.56164 6.54514 3.11493C7.99185 1.66822 9.95401 0.855469 12 0.855469C14.0459 0.855469 16.0081 1.66822 17.4548 3.11493C18.9015 4.56164 19.7142 6.5238 19.7142 8.56975V10.284" stroke="#031600" stroke-width="1.5" stroke-linecap="round" stroke-linejoin="round"/>
<path d="M9.42856 6.85547V9.4269" stroke="#031600" stroke-width="1.5" stroke-linecap="round" stroke-linejoin="round"/>
<path d="M14.5714 6.85547V9.4269" stroke="#031600" stroke-width="1.5" stroke-linecap="round" stroke-linejoin="round"/>
<path d="M9.42856 12.8555C9.42856 15.1355 14.5714 15.1355 14.5714 12.8555" stroke="#031600" stroke-width="1.5" stroke-linecap="round" stroke-linejoin="round"/>
</g>
<defs>
<clipPath id="clip0_157_760">
<rect width="24" height="24" fill="white"/>
</clipPath>
</defs>
</svg>
