<svg width="24" height="24" viewBox="0 0 24 24" fill="none" xmlns="http://www.w3.org/2000/svg">
<g clip-path="url(#clip0_480_38)">
<path d="M12 23.1431C18.154 23.1431 23.1429 18.1543 23.1429 12.0003C23.1429 5.84625 18.154 0.857422 12 0.857422C5.84597 0.857422 0.857147 5.84625 0.857147 12.0003C0.857147 18.1543 5.84597 23.1431 12 23.1431Z" stroke="#031600" stroke-width="1.5" stroke-linecap="round" stroke-linejoin="round"/>
<path d="M1.71429 16.2851H4.71429C5.50994 16.2851 6.27301 15.9691 6.83561 15.4065C7.39822 14.8438 7.71429 14.0808 7.71429 13.2851V10.7137C7.71429 9.91806 8.03037 9.15499 8.59297 8.59238C9.15558 8.02978 9.91865 7.71371 10.7143 7.71371C11.5099 7.71371 12.273 7.39763 12.8356 6.83503C13.3982 6.27242 13.7143 5.50935 13.7143 4.71371V0.976562" stroke="#031600" stroke-width="1.5" stroke-linecap="round" stroke-linejoin="round"/>
<path d="M23.1429 11.8283C22.2845 11.3829 21.3327 11.1479 20.3657 11.1426H16.7143C15.9186 11.1426 15.1556 11.4586 14.593 12.0213C14.0304 12.5839 13.7143 13.3469 13.7143 14.1426C13.7143 14.9382 14.0304 15.7013 14.593 16.2639C15.1556 16.8265 15.9186 17.1426 16.7143 17.1426C17.2826 17.1426 17.8277 17.3683 18.2295 17.7702C18.6314 18.1721 18.8572 18.7171 18.8572 19.2854V20.7769" stroke="#031600" stroke-width="1.5" stroke-linecap="round" stroke-linejoin="round"/>
</g>
<defs>
<clipPath id="clip0_480_38">
<rect width="24" height="24" fill="white"/>
</clipPath>
</defs>
</svg>
