<svg width="24" height="24" viewBox="0 0 24 24" fill="none" xmlns="http://www.w3.org/2000/svg">
<g clip-path="url(#clip0_354_1016)">
<path d="M21.4285 0.856934H2.5714C1.62463 0.856934 0.857117 1.62445 0.857117 2.57122V7.71408C0.857117 8.66085 1.62463 9.42836 2.5714 9.42836H21.4285C22.3753 9.42836 23.1428 8.66085 23.1428 7.71408V2.57122C23.1428 1.62445 22.3753 0.856934 21.4285 0.856934Z" stroke="#031600" stroke-width="1.5" stroke-linecap="round" stroke-linejoin="round"/>
<path d="M10.2857 5.14258H13.7143" stroke="#031600" stroke-width="1.5" stroke-linecap="round" stroke-linejoin="round"/>
<path d="M2.5714 9.42822C2.11675 9.42822 1.68071 9.60883 1.35922 9.93033C1.03773 10.2518 0.857117 10.6879 0.857117 11.1425V16.2854C0.857117 16.74 1.03773 17.1761 1.35922 17.4975C1.68071 17.819 2.11675 17.9997 2.5714 17.9997H21.4285C21.8832 17.9997 22.3192 17.819 22.6407 17.4975C22.9622 17.1761 23.1428 16.74 23.1428 16.2854V11.1425C23.1428 10.6879 22.9622 10.2518 22.6407 9.93033C22.3192 9.60883 21.8832 9.42822 21.4285 9.42822" stroke="#031600" stroke-width="1.5" stroke-linecap="round" stroke-linejoin="round"/>
<path d="M5.57139 5.57101C5.3347 5.57101 5.14282 5.37913 5.14282 5.14244C5.14282 4.90575 5.3347 4.71387 5.57139 4.71387" stroke="#031600" stroke-width="1.5" stroke-linecap="round" stroke-linejoin="round"/>
<path d="M5.57141 5.57101C5.8081 5.57101 5.99998 5.37913 5.99998 5.14244C5.99998 4.90575 5.8081 4.71387 5.57141 4.71387" stroke="#031600" stroke-width="1.5" stroke-linecap="round" stroke-linejoin="round"/>
<path d="M5.57139 14.1428C5.3347 14.1428 5.14282 13.9509 5.14282 13.7142C5.14282 13.4775 5.3347 13.2856 5.57139 13.2856" stroke="#031600" stroke-width="1.5" stroke-linecap="round" stroke-linejoin="round"/>
<path d="M5.57141 14.1428C5.8081 14.1428 5.99998 13.9509 5.99998 13.7142C5.99998 13.4775 5.8081 13.2856 5.57141 13.2856" stroke="#031600" stroke-width="1.5" stroke-linecap="round" stroke-linejoin="round"/>
<path d="M10.2857 13.7139H13.7143" stroke="#031600" stroke-width="1.5" stroke-linecap="round" stroke-linejoin="round"/>
<path d="M12 18V23.1429" stroke="#031600" stroke-width="1.5" stroke-linecap="round" stroke-linejoin="round"/>
<path d="M3.42853 23.1426H20.5714" stroke="#031600" stroke-width="1.5" stroke-linecap="round" stroke-linejoin="round"/>
</g>
<defs>
<clipPath id="clip0_354_1016">
<rect width="24" height="24" fill="white"/>
</clipPath>
</defs>
</svg>
