<svg width="50" height="50" viewBox="0 0 50 50" fill="none" xmlns="http://www.w3.org/2000/svg">
<g clip-path="url(#clip0_394_73)">
<path d="M11.0811 30.2139L9.34063 36.7111L2.97939 36.8457C1.07832 33.3196 0 29.2854 0 24.9982C0 20.8526 1.0082 16.9433 2.79531 13.501H2.79668L8.45996 14.5393L10.9408 20.1686C10.4216 21.6823 10.1386 23.3073 10.1386 24.9982C10.1388 26.8334 10.4712 28.5917 11.0811 30.2139Z" fill="#FBBB00"/>
<path d="M49.5629 20.332C49.85 21.8443 49.9997 23.4062 49.9997 25.0023C49.9997 26.7922 49.8115 28.5381 49.453 30.2222C48.236 35.9529 45.0561 40.957 40.6509 44.4982L40.6495 44.4969L33.5163 44.1329L32.5067 37.8307C35.4298 36.1164 37.7142 33.4337 38.9175 30.2222H25.5493V20.332H39.1125H49.5629Z" fill="#518EF8"/>
<path d="M40.65 44.4937L40.6514 44.495C36.3671 47.9387 30.9248 49.9991 25.0003 49.9991C15.4797 49.9991 7.20229 44.6777 2.97974 36.8467L11.0814 30.2148C13.1926 35.8494 18.6281 39.8604 25.0003 39.8604C27.7393 39.8604 30.3053 39.12 32.5072 37.8274L40.65 44.4937Z" fill="#28B446"/>
<path d="M40.9575 5.75547L32.8586 12.3859C30.5798 10.9615 27.886 10.1387 25.0001 10.1387C18.4836 10.1387 12.9465 14.3337 10.941 20.1703L2.79678 13.5027H2.79541C6.95615 5.48076 15.338 0 25.0001 0C31.066 0 36.6278 2.16074 40.9575 5.75547Z" fill="#F14336"/>
</g>
<defs>
<clipPath id="clip0_394_73">
<rect width="50" height="50" fill="white"/>
</clipPath>
</defs>
</svg>
