<svg width="24" height="24" viewBox="0 0 24 24" fill="none" xmlns="http://www.w3.org/2000/svg">
<g clip-path="url(#clip0_354_1267)">
<path d="M21.4286 2.57141L15.5829 8.41713" stroke="#031600" stroke-width="1.5" stroke-linecap="round" stroke-linejoin="round"/>
<path d="M2.57144 2.57141L8.41716 8.41713" stroke="#031600" stroke-width="1.5" stroke-linecap="round" stroke-linejoin="round"/>
<path d="M2.57144 21.4286L8.41716 15.5829" stroke="#031600" stroke-width="1.5" stroke-linecap="round" stroke-linejoin="round"/>
<path d="M21.4286 21.4286L15.5829 15.5829" stroke="#031600" stroke-width="1.5" stroke-linecap="round" stroke-linejoin="round"/>
<path d="M12 23.1429C18.154 23.1429 23.1429 18.1541 23.1429 12C23.1429 5.846 18.154 0.857178 12 0.857178C5.84597 0.857178 0.857147 5.846 0.857147 12C0.857147 18.1541 5.84597 23.1429 12 23.1429Z" stroke="#031600" stroke-width="1.5" stroke-linecap="round" stroke-linejoin="round"/>
<path d="M12 17.0572C14.793 17.0572 17.0572 14.793 17.0572 12C17.0572 9.20703 14.793 6.94287 12 6.94287C9.20703 6.94287 6.94287 9.20703 6.94287 12C6.94287 14.793 9.20703 17.0572 12 17.0572Z" stroke="#031600" stroke-width="1.5" stroke-linecap="round" stroke-linejoin="round"/>
</g>
<defs>
<clipPath id="clip0_354_1267">
<rect width="24" height="24" fill="white"/>
</clipPath>
</defs>
</svg>
