<svg width="45" height="45" viewBox="0 0 45 45" fill="none" xmlns="http://www.w3.org/2000/svg">
<g clip-path="url(#clip0_708_340)">
<path d="M15.5768 20.7694H9.51903C8.79783 20.7694 8.1847 20.517 7.67984 20.0122C7.17527 19.5073 6.92265 18.8944 6.92265 18.173V17.308C6.92265 15.3968 7.59886 13.7654 8.95118 12.413C10.3034 11.0612 11.9352 10.385 13.8461 10.385H15.5768C16.0455 10.385 16.451 10.2136 16.7937 9.8712C17.1362 9.5286 17.3074 9.1231 17.3074 8.65433V5.19247C17.3074 4.7238 17.1361 4.31792 16.7937 3.97531C16.4511 3.63318 16.0456 3.46155 15.5768 3.46155H13.8461C11.971 3.46155 10.182 3.82698 8.47805 4.5568C6.77431 5.2871 5.30065 6.27428 4.0565 7.51843C2.81244 8.76202 1.82555 10.2358 1.09535 11.9397C0.365147 13.6435 0 15.4329 0 17.3079V36.3459C0 37.789 0.504576 39.0143 1.5142 40.0243C2.52392 41.0337 3.75017 41.5384 5.19239 41.5384H15.5774C17.0196 41.5384 18.2454 41.0337 19.2553 40.0243C20.2647 39.0143 20.7696 37.789 20.7696 36.3459V25.9618C20.7696 24.519 20.2647 23.2937 19.2546 22.2836C18.2452 21.2742 17.0189 20.7694 15.5768 20.7694Z" fill="#89EA5F"/>
<path d="M43.4875 22.2836C42.4781 21.2742 41.2522 20.7694 39.8097 20.7694H33.752C33.0312 20.7694 32.4175 20.517 31.9135 20.0122C31.4084 19.5073 31.1563 18.8944 31.1563 18.173V17.308C31.1563 15.3968 31.8325 13.7654 33.1842 12.413C34.5359 11.0612 36.1676 10.385 38.0795 10.385H39.8098C40.2785 10.385 40.6843 10.2136 41.0267 9.8712C41.369 9.5286 41.5409 9.1231 41.5409 8.65433V5.19247C41.5409 4.7238 41.3691 4.31792 41.0267 3.97531C40.6844 3.63318 40.2786 3.46155 39.8098 3.46155H38.0795C36.2033 3.46155 34.4147 3.82698 32.7103 4.5568C31.0068 5.2871 29.5336 6.27428 28.2895 7.51843C27.0453 8.76202 26.058 10.2358 25.3281 11.9397C24.598 13.6435 24.2324 15.4329 24.2324 17.3079V36.3459C24.2324 37.789 24.7375 39.0143 25.7468 40.0243C26.7562 41.0337 27.9822 41.5384 29.4246 41.5384H39.8091C41.2516 41.5384 42.4775 41.0337 43.4868 40.0243C44.4969 39.0143 45.0009 37.789 45.0009 36.3459V25.9618C45.001 24.5189 44.4969 23.2937 43.4875 22.2836Z" fill="#89EA5F"/>
</g>
<defs>
<clipPath id="clip0_708_340">
<rect width="45" height="45" fill="white"/>
</clipPath>
</defs>
</svg>
