<svg width="24" height="24" viewBox="0 0 24 24" fill="none" xmlns="http://www.w3.org/2000/svg">
<path d="M20.5715 3.42859H22.2857C22.5131 3.42859 22.7311 3.51889 22.8918 3.67964C23.0526 3.84039 23.1429 4.0584 23.1429 4.28573V18C23.1429 18.2273 23.0526 18.4454 22.8918 18.6061C22.7311 18.7669 22.5131 18.8572 22.2857 18.8572H1.71432C1.48699 18.8572 1.26897 18.7669 1.10823 18.6061C0.947484 18.4454 0.857178 18.2273 0.857178 18V4.28573C0.857178 4.0584 0.947484 3.84039 1.10823 3.67964C1.26897 3.51889 1.48699 3.42859 1.71432 3.42859H3.42861" stroke="#031600" stroke-width="1.5" stroke-linecap="round" stroke-linejoin="round"/>
<path d="M10.2857 18.8572L8.57141 23.1429" stroke="#031600" stroke-width="1.5" stroke-linecap="round" stroke-linejoin="round"/>
<path d="M13.7144 18.8572L15.4286 23.1429" stroke="#031600" stroke-width="1.5" stroke-linecap="round" stroke-linejoin="round"/>
<path d="M6.85718 23.1428H17.1429" stroke="#031600" stroke-width="1.5" stroke-linecap="round" stroke-linejoin="round"/>
<path d="M12.0515 3.42859V6.00002" stroke="#031600" stroke-width="1.5" stroke-linecap="round" stroke-linejoin="round"/>
<path d="M6.85718 6.42859L9.08575 7.7143" stroke="#031600" stroke-width="1.5" stroke-linecap="round" stroke-linejoin="round"/>
<path d="M6.85718 12.4285L9.08575 11.1428" stroke="#031600" stroke-width="1.5" stroke-linecap="round" stroke-linejoin="round"/>
<path d="M12.0515 15.4286V12.8572" stroke="#031600" stroke-width="1.5" stroke-linecap="round" stroke-linejoin="round"/>
<path d="M17.2458 12.4285L15.0172 11.1428" stroke="#031600" stroke-width="1.5" stroke-linecap="round" stroke-linejoin="round"/>
<path d="M17.2458 6.42859L15.0172 7.7143" stroke="#031600" stroke-width="1.5" stroke-linecap="round" stroke-linejoin="round"/>
<path d="M12.0515 12.8571C13.945 12.8571 15.4801 11.3221 15.4801 9.42857C15.4801 7.53502 13.945 6 12.0515 6C10.1579 6 8.62292 7.53502 8.62292 9.42857C8.62292 11.3221 10.1579 12.8571 12.0515 12.8571Z" stroke="#031600" stroke-width="1.5" stroke-linecap="round" stroke-linejoin="round"/>
</svg>
