<svg width="40" height="40" viewBox="0 0 40 40" fill="none" xmlns="http://www.w3.org/2000/svg">
<path d="M31.6294 24.7784C30.8093 23.9258 29.8201 23.4699 28.7718 23.4699C27.7319 23.4699 26.7342 23.9173 25.8803 24.77L23.2087 27.4293C22.9889 27.3111 22.7691 27.2014 22.5577 27.0916C22.2533 26.9397 21.9659 26.7962 21.7207 26.6442C19.2181 25.057 16.9439 22.9887 14.7626 20.3124C13.7058 18.9786 12.9956 17.8557 12.4799 16.716C13.1731 16.0828 13.8157 15.4243 14.4413 14.7911C14.6781 14.5548 14.9148 14.3099 15.1515 14.0735C16.927 12.3007 16.927 10.0043 15.1515 8.23144L12.8434 5.92668C12.5813 5.66497 12.3108 5.39481 12.0571 5.12466C11.5499 4.60123 11.0172 4.06092 10.4677 3.55438C9.6476 2.74391 8.66688 2.31335 7.63542 2.31335C6.60397 2.31335 5.60633 2.74391 4.76088 3.55438C4.75242 3.56282 4.75242 3.56282 4.74397 3.57126L1.86942 6.46699C0.787243 7.54761 0.170062 8.86462 0.0347892 10.3927C-0.16812 12.8578 0.558971 15.1542 1.11697 16.6569C2.48661 20.3462 4.53261 23.7654 7.5847 27.4293C11.2878 31.8447 15.7433 35.3314 20.833 37.7881C22.7775 38.7083 25.3731 39.7974 28.273 39.9831C28.4505 39.9916 28.6365 40 28.8056 40C30.7586 40 32.3988 39.2993 33.6839 37.9063C33.6923 37.8894 33.7092 37.881 33.7177 37.8641C34.1573 37.3322 34.6646 36.851 35.1972 36.336C35.5608 35.9899 35.9328 35.6269 36.2963 35.247C37.1333 34.3774 37.573 33.3643 37.573 32.3259C37.573 31.2791 37.1249 30.2744 36.271 29.4302L31.6294 24.7784ZM34.6561 33.6682C34.6477 33.6767 34.6477 33.6682 34.6561 33.6682C34.3264 34.0228 33.9882 34.3436 33.6247 34.6982C33.0751 35.2216 32.5171 35.7704 31.993 36.3867C31.1391 37.2984 30.133 37.729 28.8141 37.729C28.6872 37.729 28.552 37.729 28.4251 37.7206C25.9141 37.5602 23.5807 36.5808 21.8306 35.7451C17.0453 33.4319 12.8434 30.1478 9.3517 25.9857C6.4687 22.5159 4.54106 19.3078 3.26442 15.8633C2.47815 13.7612 2.1907 12.1234 2.31752 10.5784C2.40206 9.59066 2.78252 8.77175 3.48424 8.07104L6.36724 5.1922C6.78151 4.80385 7.22115 4.59279 7.65233 4.59279C8.18497 4.59279 8.61615 4.9136 8.8867 5.18375C8.89515 5.1922 8.9036 5.20064 8.91206 5.20908C9.42779 5.69029 9.91815 6.18839 10.4339 6.72026C10.696 6.99042 10.9665 7.26057 11.2371 7.53917L13.5451 9.84393C14.4413 10.7388 14.4413 11.5662 13.5451 12.4611C13.3 12.7059 13.0632 12.9507 12.8181 13.1871C12.1079 13.9131 11.4315 14.5885 10.696 15.247C10.6791 15.2639 10.6621 15.2724 10.6537 15.2892C9.9266 16.0153 10.0619 16.7244 10.2141 17.2057C10.2225 17.231 10.231 17.2563 10.2394 17.2816C10.8397 18.7337 11.6851 20.1014 12.9702 21.7308L12.9787 21.7392C15.3121 24.6096 17.7724 26.8468 20.4863 28.5606C20.833 28.7801 21.1881 28.9574 21.5262 29.1263C21.8306 29.2782 22.1181 29.4217 22.3632 29.5737C22.3971 29.5906 22.4309 29.6159 22.4647 29.6328C22.7521 29.7763 23.0227 29.8439 23.3017 29.8439C24.0034 29.8439 24.4431 29.4049 24.5868 29.2613L27.4782 26.374C27.7657 26.087 28.2222 25.7409 28.7549 25.7409C29.2791 25.7409 29.7102 26.0701 29.9723 26.3572C29.9808 26.3656 29.9808 26.3656 29.9892 26.374L34.6477 31.0258C35.5185 31.8869 35.5185 32.7733 34.6561 33.6682Z" fill="white"/>
<path d="M21.6206 9.51483C23.8357 9.88629 25.8479 10.9331 27.4543 12.5372C29.0606 14.1412 30.1005 16.1505 30.481 18.3624C30.574 18.9196 31.0559 19.308 31.6055 19.308C31.6731 19.308 31.7323 19.2995 31.7999 19.2911C32.4255 19.1898 32.8398 18.5988 32.7384 17.9741C32.2818 15.2978 31.0136 12.858 29.0775 10.9247C27.1415 8.9914 24.6981 7.72505 22.018 7.26916C21.3924 7.16786 20.809 7.58153 20.6991 8.19782C20.5892 8.81411 20.995 9.41352 21.6206 9.51483Z" fill="white"/>
<path d="M39.9822 17.645C39.2298 13.2381 37.15 9.22798 33.9541 6.03677C30.7583 2.84556 26.7424 0.768745 22.3291 0.0173756C21.712 -0.0923749 21.1286 0.329743 21.0187 0.946034C20.9172 1.57077 21.3315 2.15329 21.9571 2.26304C25.897 2.92999 29.4901 4.79574 32.3478 7.64082C35.2054 10.4943 37.0654 14.0823 37.7333 18.0165C37.8263 18.5737 38.3082 18.962 38.8578 18.962C38.9254 18.962 38.9846 18.9536 39.0522 18.9451C39.6694 18.8523 40.0921 18.2613 39.9822 17.645Z" fill="white"/>
</svg>
