<svg width="20" height="20" viewBox="0 0 20 20" fill="none" xmlns="http://www.w3.org/2000/svg">
<g clip-path="url(#clip0_462_87)">
<path d="M16.1142 13.7141C16.5889 13.7141 17.0529 13.8549 17.4476 14.1186C17.8423 14.3823 18.1499 14.7571 18.3316 15.1957C18.5132 15.6342 18.5607 16.1168 18.4681 16.5823C18.3755 17.0479 18.1469 17.4755 17.8113 17.8112C17.4757 18.1468 17.048 18.3754 16.5825 18.468C16.1169 18.5606 15.6343 18.5131 15.1958 18.3314C14.7573 18.1498 14.3824 17.8422 14.1187 17.4475C13.855 17.0528 13.7142 16.5888 13.7142 16.1141V3.08555C13.7142 2.61087 13.855 2.14686 14.1187 1.75218C14.3824 1.3575 14.7573 1.04989 15.1958 0.868237C15.6343 0.686587 16.1169 0.639059 16.5825 0.731663C17.048 0.824268 17.4757 1.05285 17.8113 1.38849C18.1469 1.72414 18.3755 2.15178 18.4681 2.61733C18.5607 3.08289 18.5132 3.56545 18.3316 4.00399C18.1499 4.44253 17.8423 4.81736 17.4476 5.08108C17.0529 5.34479 16.5889 5.48555 16.1142 5.48555H3.08567C2.61099 5.48555 2.14698 5.34479 1.7523 5.08108C1.35762 4.81736 1.05001 4.44253 0.868359 4.00399C0.686709 3.56545 0.639181 3.08289 0.731785 2.61733C0.82439 2.15178 1.05297 1.72414 1.38861 1.38849C1.72426 1.05285 2.1519 0.824268 2.61745 0.731663C3.08301 0.639059 3.56557 0.686587 4.00411 0.868237C4.44265 1.04989 4.81748 1.3575 5.0812 1.75218C5.34491 2.14686 5.48567 2.61087 5.48567 3.08555V16.1141C5.48567 16.5888 5.34491 17.0528 5.0812 17.4475C4.81748 17.8422 4.44265 18.1498 4.00411 18.3314C3.56557 18.5131 3.08301 18.5606 2.61745 18.468C2.1519 18.3754 1.72426 18.1468 1.38861 17.8112C1.05297 17.4755 0.82439 17.0479 0.731785 16.5823C0.639181 16.1168 0.686709 15.6342 0.868359 15.1957C1.05001 14.7571 1.35762 14.3823 1.7523 14.1186C2.14698 13.8549 2.61099 13.7141 3.08567 13.7141H16.1142Z" stroke="#031600" stroke-width="1.5" stroke-linecap="round" stroke-linejoin="round"/>
</g>
<defs>
<clipPath id="clip0_462_87">
<rect width="19.2" height="19.2" fill="white"/>
</clipPath>
</defs>
</svg>
