<svg width="24" height="24" viewBox="0 0 24 24" fill="none" xmlns="http://www.w3.org/2000/svg">
<g clip-path="url(#clip0_401_3552)">
<path d="M12 17.1772V18.9086" stroke="#031600" stroke-width="1.5" stroke-linecap="round" stroke-linejoin="round"/>
<path d="M12 8.58859V10.2" stroke="#031600" stroke-width="1.5" stroke-linecap="round" stroke-linejoin="round"/>
<path d="M12.0001 23.1257C18.0001 23.1257 22.2858 21 22.2858 16.2686C22.2858 11.1257 19.7144 7.69715 14.5715 5.12573L16.5944 2.52001C16.6971 2.34905 16.7529 2.15395 16.7559 1.9545C16.759 1.75505 16.7093 1.55833 16.6118 1.38429C16.5143 1.21025 16.3726 1.06507 16.2009 0.963462C16.0293 0.861857 15.8338 0.807439 15.6344 0.805725H8.36578C8.16632 0.807439 7.97085 0.861857 7.79919 0.963462C7.62754 1.06507 7.48579 1.21025 7.38833 1.38429C7.29086 1.55833 7.24114 1.75505 7.24421 1.9545C7.24728 2.15395 7.30302 2.34905 7.40578 2.52001L9.42864 5.14287C4.28578 7.73144 1.71436 11.16 1.71436 16.3029C1.71436 21 6.00007 23.1257 12.0001 23.1257Z" stroke="#031600" stroke-width="1.5" stroke-linecap="round" stroke-linejoin="round"/>
<path d="M10.2857 16.3886C10.4948 16.6369 10.7581 16.834 11.0553 16.9647C11.3524 17.0955 11.6756 17.1564 12 17.1429C12.4957 17.1767 12.9853 17.0169 13.3658 16.6972C13.7462 16.3775 13.9879 15.9228 14.04 15.4286C13.9879 14.9344 13.7462 14.4796 13.3658 14.1599C12.9853 13.8402 12.4957 13.6805 12 13.7143C11.5042 13.7481 11.0146 13.5884 10.6342 13.2687C10.2537 12.949 10.0121 12.4942 9.95996 12C10.0079 11.5041 10.2484 11.0467 10.6298 10.7262C11.0113 10.4057 11.5032 10.2475 12 10.2857C12.3186 10.2662 12.6376 10.3176 12.9341 10.4362C13.2305 10.5548 13.4969 10.7376 13.7142 10.9714" stroke="#031600" stroke-width="1.5" stroke-linecap="round" stroke-linejoin="round"/>
</g>
<defs>
<clipPath id="clip0_401_3552">
<rect width="24" height="24" fill="white"/>
</clipPath>
</defs>
</svg>
