<svg width="24" height="24" viewBox="0 0 24 24" fill="none" xmlns="http://www.w3.org/2000/svg">
<g clip-path="url(#clip0_493_152)">
<path d="M0.857178 19.7176C0.857178 19.7176 4.28575 16.2891 12 16.2891C19.7143 16.2891 23.1429 19.7176 23.1429 19.7176" stroke="#031600" stroke-width="1.5" stroke-linecap="round" stroke-linejoin="round"/>
<path d="M12 16.2891V23.1462" stroke="#031600" stroke-width="1.5" stroke-linecap="round" stroke-linejoin="round"/>
<path d="M4.28577 23.1456L10.2858 16.3398" stroke="#031600" stroke-width="1.5" stroke-linecap="round" stroke-linejoin="round"/>
<path d="M19.7144 23.1456L13.7144 16.3398" stroke="#031600" stroke-width="1.5" stroke-linecap="round" stroke-linejoin="round"/>
<path d="M6.06866 12.8571C6.04254 12.572 6.04254 12.2851 6.06866 12C6.06866 10.4087 6.70081 8.88258 7.82602 7.75736C8.95124 6.63214 10.4774 6 12.0687 6C13.66 6 15.1861 6.63214 16.3113 7.75736C17.4365 8.88258 18.0687 10.4087 18.0687 12C18.0948 12.2851 18.0948 12.572 18.0687 12.8571" stroke="#031600" stroke-width="1.5" stroke-linecap="round" stroke-linejoin="round"/>
<path d="M0.857178 12H2.57146" stroke="#031600" stroke-width="1.5" stroke-linecap="round" stroke-linejoin="round"/>
<path d="M4.28577 4.28906L5.14291 5.14621" stroke="#031600" stroke-width="1.5" stroke-linecap="round" stroke-linejoin="round"/>
<path d="M12 0.859375V2.57366" stroke="#031600" stroke-width="1.5" stroke-linecap="round" stroke-linejoin="round"/>
<path d="M19.7143 4.28906L18.8572 5.14621" stroke="#031600" stroke-width="1.5" stroke-linecap="round" stroke-linejoin="round"/>
<path d="M23.143 12H21.4287" stroke="#031600" stroke-width="1.5" stroke-linecap="round" stroke-linejoin="round"/>
</g>
<defs>
<clipPath id="clip0_493_152">
<rect width="24" height="24" fill="white"/>
</clipPath>
</defs>
</svg>
