<svg width="24" height="24" viewBox="0 0 24 24" fill="none" xmlns="http://www.w3.org/2000/svg">
<path d="M18.24 2.64014H5.76C5.47228 2.64804 5.19046 2.72354 4.93732 2.86053C4.68419 2.99752 4.46684 3.19216 4.30286 3.42871L1.18286 7.74871C0.951184 8.07609 0.835484 8.47147 0.854118 8.87211C0.872752 9.27274 1.02465 9.65567 1.28572 9.96014L10.6457 20.743C10.806 20.9495 11.0113 21.1166 11.246 21.2315C11.4807 21.3465 11.7386 21.4062 12 21.4062C12.2614 21.4062 12.5193 21.3465 12.754 21.2315C12.9887 21.1166 13.194 20.9495 13.3543 20.743L22.7143 9.96014C22.9754 9.65567 23.1273 9.27274 23.1459 8.87211C23.1645 8.47147 23.0488 8.07609 22.8171 7.74871L19.6971 3.42871C19.5332 3.19216 19.3158 2.99752 19.0627 2.86053C18.8095 2.72354 18.5277 2.64804 18.24 2.64014V2.64014Z" stroke="white" stroke-width="1.5" stroke-linecap="round" stroke-linejoin="round"/>
<path d="M11.1086 2.62305L6.92572 9.10305L12 21.3602" stroke="white" stroke-width="1.5" stroke-linecap="round" stroke-linejoin="round"/>
<path d="M12.9429 2.62305L17.1086 9.10305L12 21.3602" stroke="white" stroke-width="1.5" stroke-linecap="round" stroke-linejoin="round"/>
<path d="M0.891418 9.10303H23.1086" stroke="white" stroke-width="1.5" stroke-linecap="round" stroke-linejoin="round"/>
</svg>
