<svg width="24" height="24" viewBox="0 0 24 24" fill="none" xmlns="http://www.w3.org/2000/svg">
<path d="M17.1429 2.57129H6.85723C5.91046 2.57129 5.14294 3.3388 5.14294 4.28557V12.857C5.14294 13.8038 5.91046 14.5713 6.85723 14.5713H17.1429C18.0897 14.5713 18.8572 13.8038 18.8572 12.857V4.28557C18.8572 3.3388 18.0897 2.57129 17.1429 2.57129Z" stroke="#031600" stroke-width="1.5" stroke-linecap="round" stroke-linejoin="round"/>
<path d="M5.14289 7.71387H2.57146C2.11681 7.71387 1.68077 7.89448 1.35928 8.21597C1.03779 8.53746 0.857178 8.9735 0.857178 9.42815V17.1424C0.857178 17.5971 1.03779 18.0331 1.35928 18.3546C1.68077 18.6761 2.11681 18.8567 2.57146 18.8567H21.4286C21.8833 18.8567 22.3193 18.6761 22.6408 18.3546C22.9623 18.0331 23.1429 17.5971 23.1429 17.1424V9.42815C23.1429 8.9735 22.9623 8.53746 22.6408 8.21597C22.3193 7.89448 21.8833 7.71387 21.4286 7.71387H18.8572" stroke="#031600" stroke-width="1.5" stroke-linecap="round" stroke-linejoin="round"/>
<path d="M6.85739 18.8574L6.00024 23.1431" stroke="#031600" stroke-width="1.5" stroke-linecap="round" stroke-linejoin="round"/>
<path d="M17.1429 18.8574L18.0001 23.1431" stroke="#031600" stroke-width="1.5" stroke-linecap="round" stroke-linejoin="round"/>
</svg>
