<svg width="24" height="24" viewBox="0 0 24 24" fill="none" xmlns="http://www.w3.org/2000/svg">
<g clip-path="url(#clip0_354_1550)">
<path d="M12 7.71401V5.14258" stroke="#031600" stroke-width="1.5" stroke-linecap="round" stroke-linejoin="round"/>
<path d="M9.42859 14.571C9.42859 15.8567 10.5772 16.2853 12 16.2853C13.4229 16.2853 14.5714 16.2853 14.5714 14.571C14.5714 11.9996 9.42859 11.9996 9.42859 9.42815C9.42859 7.71387 10.5772 7.71387 12 7.71387C13.4229 7.71387 14.5714 8.3653 14.5714 9.42815" stroke="#031600" stroke-width="1.5" stroke-linecap="round" stroke-linejoin="round"/>
<path d="M12 16.2852V18.8566" stroke="#031600" stroke-width="1.5" stroke-linecap="round" stroke-linejoin="round"/>
<path d="M12 23.1426C18.1541 23.1426 23.1429 18.1538 23.1429 11.9998C23.1429 5.84576 18.1541 0.856934 12 0.856934C5.846 0.856934 0.857178 5.84576 0.857178 11.9998C0.857178 18.1538 5.846 23.1426 12 23.1426Z" stroke="#031600" stroke-width="1.5" stroke-linecap="round" stroke-linejoin="round"/>
</g>
<defs>
<clipPath id="clip0_354_1550">
<rect width="24" height="24" fill="white"/>
</clipPath>
</defs>
</svg>
