<svg width="24" height="24" viewBox="0 0 24 24" fill="none" xmlns="http://www.w3.org/2000/svg">
<g clip-path="url(#clip0_490_28)">
<path d="M15.8571 23.1423H9L8.14285 16.2852H16.7143L15.8571 23.1423Z" stroke="#031600" stroke-width="1.5" stroke-linecap="round" stroke-linejoin="round"/>
<path d="M20.7943 10.405C20.4439 10.71 20.0351 10.9407 19.5928 11.0829C19.1505 11.2251 18.6839 11.2759 18.2214 11.2323C17.7589 11.1887 17.31 11.0516 16.9021 10.8292C16.4942 10.6068 16.1357 10.3038 15.8485 9.93866C15.5613 9.57351 15.3512 9.15379 15.2312 8.70498C15.1111 8.25617 15.0835 7.78764 15.15 7.32784C15.2166 6.86804 15.3759 6.42656 15.6182 6.03021C15.8606 5.63385 16.181 5.29089 16.56 5.02215C18.0343 3.85644 22.7143 4.54215 22.7143 4.54215C22.7143 4.54215 22.2857 9.23929 20.7943 10.405Z" stroke="#031600" stroke-width="1.5" stroke-linecap="round" stroke-linejoin="round"/>
<path d="M15.8572 9.66829C14.866 10.4804 14.0508 11.486 13.4613 12.6237C12.8718 13.7614 12.5204 15.0074 12.4286 16.2854C12.4286 11.1426 9.85716 7.71401 5.57144 5.14258" stroke="#031600" stroke-width="1.5" stroke-linecap="round" stroke-linejoin="round"/>
<path d="M2.86286 8.57069C3.70219 9.29158 4.78285 9.66884 5.88847 9.62693C6.99409 9.58503 8.04309 9.12705 8.82544 8.3447C9.6078 7.56234 10.0658 6.51335 10.1077 5.40772C10.1496 4.3021 9.77233 3.22145 9.05144 2.38212C7.33715 0.684976 1.28572 0.856405 1.28572 0.856405C1.28572 0.856405 1.14858 6.85641 2.86286 8.57069Z" stroke="#031600" stroke-width="1.5" stroke-linecap="round" stroke-linejoin="round"/>
</g>
<defs>
<clipPath id="clip0_490_28">
<rect width="24" height="24" fill="white"/>
</clipPath>
</defs>
</svg>
