<svg width="24" height="24" viewBox="0 0 24 24" fill="none" xmlns="http://www.w3.org/2000/svg">
<g clip-path="url(#clip0_430_1304)">
<path d="M12.0003 23.1429C18.1543 23.1429 23.1431 18.1541 23.1431 12C23.1431 5.846 18.1543 0.857178 12.0003 0.857178C5.84625 0.857178 0.857422 5.846 0.857422 12C0.857422 18.1541 5.84625 23.1429 12.0003 23.1429Z" stroke="#031600" stroke-width="1.5" stroke-linecap="round" stroke-linejoin="round"/>
<path d="M11.9994 0.857178C11.9994 0.857178 5.02225 7.01146 11.9994 12C17.9994 16.2857 11.9994 23.1429 11.9994 23.1429" stroke="#031600" stroke-width="1.5" stroke-linecap="round" stroke-linejoin="round"/>
<path d="M15.4291 9.42857C16.3759 9.42857 17.1434 8.66106 17.1434 7.71429C17.1434 6.76751 16.3759 6 15.4291 6C14.4824 6 13.7148 6.76751 13.7148 7.71429C13.7148 8.66106 14.4824 9.42857 15.4291 9.42857Z" stroke="#031600" stroke-width="1.5" stroke-linecap="round" stroke-linejoin="round"/>
<path d="M8.57171 18C9.51848 18 10.286 17.2325 10.286 16.2858C10.286 15.339 9.51848 14.5715 8.57171 14.5715C7.62493 14.5715 6.85742 15.339 6.85742 16.2858C6.85742 17.2325 7.62493 18 8.57171 18Z" stroke="#031600" stroke-width="1.5" stroke-linecap="round" stroke-linejoin="round"/>
</g>
<defs>
<clipPath id="clip0_430_1304">
<rect width="24" height="24" fill="white"/>
</clipPath>
</defs>
</svg>
