<svg width="25" height="24" viewBox="0 0 25 24" fill="none" xmlns="http://www.w3.org/2000/svg">
<g clip-path="url(#clip0_608_27)">
<path d="M0.576111 19.7137C0.576111 19.7137 4.00468 16.2852 11.719 16.2852C19.4333 16.2852 22.8618 19.7137 22.8618 19.7137" stroke="#031600" stroke-width="1.5" stroke-linecap="round" stroke-linejoin="round"/>
<path d="M11.719 16.2852V23.1423" stroke="#031600" stroke-width="1.5" stroke-linecap="round" stroke-linejoin="round"/>
<path d="M4.00467 23.1436L10.0047 16.3379" stroke="#031600" stroke-width="1.5" stroke-linecap="round" stroke-linejoin="round"/>
<path d="M19.4333 23.1436L13.4333 16.3379" stroke="#031600" stroke-width="1.5" stroke-linecap="round" stroke-linejoin="round"/>
<path d="M5.78754 12.8571C5.76141 12.572 5.76141 12.2851 5.78754 12C5.78754 10.4087 6.41968 8.88258 7.5449 7.75736C8.67011 6.63214 10.1962 6 11.7875 6C13.3788 6 14.905 6.63214 16.0302 7.75736C17.1554 8.88258 17.7875 10.4087 17.7875 12C17.8137 12.2851 17.8137 12.572 17.7875 12.8571" stroke="#031600" stroke-width="1.5" stroke-linecap="round" stroke-linejoin="round"/>
<path d="M0.576111 12H2.2904" stroke="#031600" stroke-width="1.5" stroke-linecap="round" stroke-linejoin="round"/>
<path d="M4.00467 4.28516L4.86181 5.1423" stroke="#031600" stroke-width="1.5" stroke-linecap="round" stroke-linejoin="round"/>
<path d="M11.719 0.857422V2.57171" stroke="#031600" stroke-width="1.5" stroke-linecap="round" stroke-linejoin="round"/>
<path d="M19.4333 4.28516L18.5761 5.1423" stroke="#031600" stroke-width="1.5" stroke-linecap="round" stroke-linejoin="round"/>
<path d="M22.8618 12H21.1476" stroke="#031600" stroke-width="1.5" stroke-linecap="round" stroke-linejoin="round"/>
</g>
<defs>
<clipPath id="clip0_608_27">
<rect width="24.1569" height="24" fill="white"/>
</clipPath>
</defs>
</svg>
