<svg width="24" height="24" viewBox="0 0 24 24" fill="none" xmlns="http://www.w3.org/2000/svg">
<path d="M0.857117 17.5706C0.857117 14.6153 2.03109 11.7811 4.12078 9.6914C6.21048 7.60171 9.0447 6.42773 12 6.42773C14.9552 6.42773 17.7895 7.60171 19.8792 9.6914C21.9689 11.7811 23.1428 14.6153 23.1428 17.5706" stroke="#031600" stroke-width="1.5" stroke-linecap="round" stroke-linejoin="round"/>
<path d="M5.14282 17.57C5.14282 15.7514 5.86527 14.0073 7.15123 12.7213C8.4372 11.4353 10.1813 10.7129 12 10.7129C13.8186 10.7129 15.5627 11.4353 16.8487 12.7213C18.1347 14.0073 18.8571 15.7514 18.8571 17.57" stroke="#031600" stroke-width="1.5" stroke-linecap="round" stroke-linejoin="round"/>
<path d="M9.42853 17.5714C9.42853 16.8894 9.69945 16.2354 10.1817 15.7532C10.6639 15.2709 11.318 15 12 15C12.6819 15 13.336 15.2709 13.8182 15.7532C14.3005 16.2354 14.5714 16.8894 14.5714 17.5714" stroke="#031600" stroke-width="1.5" stroke-linecap="round" stroke-linejoin="round"/>
</svg>
