<svg width="24" height="24" viewBox="0 0 24 24" fill="none" xmlns="http://www.w3.org/2000/svg">
<g clip-path="url(#clip0_354_1507)">
<path d="M20.1429 17.1426C20.7362 17.1426 21.3162 17.3186 21.8096 17.6482C22.3029 17.9779 22.6874 18.4464 22.9145 18.9946C23.1416 19.5428 23.201 20.146 23.0852 20.7279C22.9695 21.3099 22.6837 21.8444 22.2642 22.264C21.8446 22.6835 21.3101 22.9693 20.7281 23.085C20.1462 23.2008 19.543 23.1414 18.9948 22.9143C18.4466 22.6872 17.9781 22.3027 17.6485 21.8094C17.3188 21.316 17.1429 20.736 17.1429 20.1426V3.85693C17.1429 3.26359 17.3188 2.68357 17.6485 2.19022C17.9781 1.69688 18.4466 1.31236 18.9948 1.0853C19.543 0.858233 20.1462 0.798823 20.7281 0.914579C21.3101 1.03033 21.8446 1.31606 22.2642 1.73561C22.6837 2.15517 22.9695 2.68972 23.0852 3.27166C23.201 3.85361 23.1416 4.45681 22.9145 5.00499C22.6874 5.55316 22.3029 6.0217 21.8096 6.35134C21.3162 6.68099 20.7362 6.85693 20.1429 6.85693H3.85715C3.2638 6.85693 2.68379 6.68099 2.19044 6.35134C1.69709 6.0217 1.31257 5.55316 1.08551 5.00499C0.858447 4.45681 0.799037 3.85361 0.914793 3.27166C1.03055 2.68972 1.31627 2.15517 1.73583 1.73561C2.15539 1.31606 2.68993 1.03033 3.27188 0.914579C3.85382 0.798823 4.45702 0.858233 5.0052 1.0853C5.55338 1.31236 6.02191 1.69688 6.35156 2.19022C6.6812 2.68357 6.85715 3.26359 6.85715 3.85693V20.1426C6.85715 20.736 6.6812 21.316 6.35156 21.8094C6.02191 22.3027 5.55338 22.6872 5.0052 22.9143C4.45702 23.1414 3.85382 23.2008 3.27188 23.085C2.68993 22.9693 2.15539 22.6835 1.73583 22.264C1.31627 21.8444 1.03055 21.3099 0.914793 20.7279C0.799037 20.146 0.858447 19.5428 1.08551 18.9946C1.31257 18.4464 1.69709 17.9779 2.19044 17.6482C2.68379 17.3186 3.2638 17.1426 3.85715 17.1426H20.1429Z" stroke="#031600" stroke-width="1.5" stroke-linecap="round" stroke-linejoin="round"/>
</g>
<defs>
<clipPath id="clip0_354_1507">
<rect width="24" height="24" fill="white"/>
</clipPath>
</defs>
</svg>
