<svg width="30" height="30" viewBox="0 0 30 30" fill="none" xmlns="http://www.w3.org/2000/svg">
<g clip-path="url(#clip0_518_577)">
<path d="M6.42855 28.933C9.38722 28.933 11.7857 26.5346 11.7857 23.5759C11.7857 20.6172 9.38722 18.2188 6.42855 18.2188C3.46989 18.2188 1.07141 20.6172 1.07141 23.5759C1.07141 26.5346 3.46989 28.933 6.42855 28.933Z" stroke="#031600" stroke-width="1.5" stroke-linecap="round" stroke-linejoin="round"/>
<path d="M11.7857 6.43172V3.21743C11.7857 2.64911 11.5599 2.10407 11.158 1.7022C10.7562 1.30034 10.2111 1.07457 9.64281 1.07457H7.11424C6.6099 1.0654 6.11849 1.23444 5.72652 1.55194C5.33454 1.86944 5.06714 2.31503 4.97138 2.81029L1.17853 22.5031" stroke="#031600" stroke-width="1.5" stroke-linecap="round" stroke-linejoin="round"/>
<path d="M9.64282 11.7871H20.3571" stroke="#031600" stroke-width="1.5" stroke-linecap="round" stroke-linejoin="round"/>
<path d="M11.7856 17.1484V23.577" stroke="#031600" stroke-width="1.5" stroke-linecap="round" stroke-linejoin="round"/>
<path d="M23.5714 28.933C26.5301 28.933 28.9286 26.5346 28.9286 23.5759C28.9286 20.6172 26.5301 18.2188 23.5714 18.2188C20.6128 18.2188 18.2143 20.6172 18.2143 23.5759C18.2143 26.5346 20.6128 28.933 23.5714 28.933Z" stroke="#031600" stroke-width="1.5" stroke-linecap="round" stroke-linejoin="round"/>
<path d="M18.2143 6.43172V3.21743C18.2143 2.64911 18.4401 2.10407 18.8419 1.7022C19.2438 1.30034 19.7888 1.07457 20.3572 1.07457H22.8857C23.3901 1.0654 23.8815 1.23444 24.2734 1.55194C24.6654 1.86944 24.9328 2.31503 25.0286 2.81029L28.8643 22.5031" stroke="#031600" stroke-width="1.5" stroke-linecap="round" stroke-linejoin="round"/>
<path d="M18.2143 17.1484V23.577" stroke="#031600" stroke-width="1.5" stroke-linecap="round" stroke-linejoin="round"/>
</g>
<defs>
<clipPath id="clip0_518_577">
<rect width="30" height="30" fill="white"/>
</clipPath>
</defs>
</svg>
