<svg width="24" height="24" viewBox="0 0 24 24" fill="none" xmlns="http://www.w3.org/2000/svg">
<g clip-path="url(#clip0_354_989)">
<path d="M11.9999 21.463C17.6806 21.463 22.2857 16.858 22.2857 11.1773C22.2857 5.49667 17.6806 0.891602 11.9999 0.891602C6.3193 0.891602 1.71423 5.49667 1.71423 11.1773C1.71423 16.858 6.3193 21.463 11.9999 21.463Z" stroke="#031600" stroke-width="1.5" stroke-linecap="round" stroke-linejoin="round"/>
<path d="M17.2628 20.0229C18.8797 20.7436 20.3279 21.7947 21.5142 23.1087" stroke="#031600" stroke-width="1.5" stroke-linecap="round" stroke-linejoin="round"/>
<path d="M2.48572 23.1087C3.67204 21.7947 5.12023 20.7436 6.73715 20.0229" stroke="#031600" stroke-width="1.5" stroke-linecap="round" stroke-linejoin="round"/>
<path d="M11.9999 16.3204C14.8402 16.3204 17.1428 14.0178 17.1428 11.1775C17.1428 8.3372 14.8402 6.03467 11.9999 6.03467C9.15959 6.03467 6.85706 8.3372 6.85706 11.1775C6.85706 14.0178 9.15959 16.3204 11.9999 16.3204Z" stroke="#031600" stroke-width="1.5" stroke-linecap="round" stroke-linejoin="round"/>
<path d="M12 12.0346C12.4734 12.0346 12.8571 11.6508 12.8571 11.1775C12.8571 10.7041 12.4734 10.3203 12 10.3203C11.5266 10.3203 11.1428 10.7041 11.1428 11.1775C11.1428 11.6508 11.5266 12.0346 12 12.0346Z" stroke="#031600" stroke-width="1.5" stroke-linecap="round" stroke-linejoin="round"/>
</g>
<defs>
<clipPath id="clip0_354_989">
<rect width="24" height="24" fill="white"/>
</clipPath>
</defs>
</svg>
