<svg width="30" height="30" viewBox="0 0 30 30" fill="none" xmlns="http://www.w3.org/2000/svg">
<g clip-path="url(#clip0_416_88)">
<path d="M23.7091 18.5836C23.0949 17.9441 22.3541 17.6022 21.569 17.6022C20.7902 17.6022 20.0431 17.9378 19.4036 18.5773L17.4027 20.5717C17.2381 20.4831 17.0735 20.4008 16.9152 20.3185C16.6873 20.2045 16.472 20.0969 16.2884 19.9829C14.4142 18.7925 12.7109 17.2413 11.0774 15.2341C10.2859 14.2337 9.75404 13.3916 9.36781 12.5368C9.88701 12.0619 10.3682 11.5681 10.8368 11.0932C11.0141 10.9159 11.1913 10.7323 11.3686 10.555C12.6983 9.22533 12.6983 7.50311 11.3686 6.17345L9.64007 4.44489C9.44379 4.24861 9.24117 4.046 9.05122 3.84338C8.67132 3.45082 8.27242 3.04559 7.86086 2.66568C7.24669 2.05784 6.51221 1.73492 5.73974 1.73492C4.96727 1.73492 4.22013 2.05784 3.58696 2.66568C3.58063 2.67202 3.58063 2.67202 3.5743 2.67835L1.42152 4.85012C0.61106 5.66058 0.148846 6.64833 0.0475384 7.79437C-0.104423 9.64322 0.440104 11.3654 0.857997 12.4925C1.88373 15.2594 3.41601 17.8238 5.70175 20.5717C8.47504 23.8832 11.8118 26.4982 15.6235 28.3407C17.0798 29.0309 19.0237 29.8477 21.1954 29.987C21.3284 29.9933 21.4677 29.9997 21.5943 29.9997C23.057 29.9997 24.2853 29.4741 25.2477 28.4294C25.2541 28.4167 25.2667 28.4104 25.2731 28.3977C25.6023 27.9988 25.9822 27.6379 26.3811 27.2517C26.6534 26.9921 26.932 26.7198 27.2042 26.4349C27.8311 25.7827 28.1603 25.0229 28.1603 24.2441C28.1603 23.459 27.8247 22.7055 27.1852 22.0724L23.7091 18.5836ZM25.9759 25.2509C25.9695 25.2509 25.9695 25.2572 25.9759 25.2509C25.7289 25.5168 25.4757 25.7574 25.2034 26.0233C24.7918 26.4159 24.374 26.8275 23.9814 27.2897C23.3419 27.9735 22.5884 28.2964 21.6007 28.2964C21.5057 28.2964 21.4044 28.2964 21.3094 28.2901C19.4289 28.1698 17.6813 27.4353 16.3707 26.8085C12.7869 25.0736 9.64007 22.6106 7.02508 19.489C4.86597 16.8867 3.42234 14.4806 2.46625 11.8973C1.8774 10.3207 1.66212 9.09237 1.7571 7.93366C1.82042 7.19285 2.10534 6.57868 2.63087 6.05315L4.78999 3.89404C5.10024 3.60278 5.42949 3.44448 5.75241 3.44448C6.1513 3.44448 6.47422 3.68509 6.67683 3.8877C6.68317 3.89404 6.6895 3.90037 6.69583 3.9067C7.08206 4.26761 7.4493 4.64118 7.83554 5.04007C8.03182 5.24269 8.23443 5.4453 8.43705 5.65425L10.1656 7.38281C10.8368 8.05397 10.8368 8.67447 10.1656 9.34563C9.98198 9.52925 9.8047 9.71287 9.62108 9.89016C9.08921 10.4347 8.58268 10.9412 8.03182 11.4351C8.01916 11.4478 8.00649 11.4541 8.00016 11.4668C7.45563 12.0113 7.55694 12.5431 7.67091 12.9041C7.67724 12.923 7.68358 12.942 7.68991 12.961C8.13946 14.0501 8.77263 15.0758 9.73505 16.2978L9.74138 16.3042C11.4889 18.457 13.3315 20.1349 15.3639 21.4202C15.6235 21.5848 15.8895 21.7178 16.1427 21.8444C16.3707 21.9584 16.586 22.066 16.7696 22.18C16.7949 22.1927 16.8202 22.2117 16.8456 22.2243C17.0608 22.332 17.2634 22.3826 17.4724 22.3826C17.9979 22.3826 18.3272 22.0534 18.4348 21.9457L20.6003 19.7803C20.8155 19.565 21.1574 19.3054 21.5563 19.3054C21.9489 19.3054 22.2718 19.5523 22.4681 19.7676C22.4744 19.774 22.4744 19.774 22.4808 19.7803L25.9695 23.2691C26.6217 23.9149 26.6217 24.5797 25.9759 25.2509Z" fill="#031600"/>
<path d="M16.2124 7.13666C17.8713 7.41525 19.3782 8.20038 20.5813 9.40341C21.7843 10.6064 22.5631 12.1134 22.848 13.7723C22.9177 14.1902 23.2786 14.4814 23.6901 14.4814C23.7408 14.4814 23.7851 14.4751 23.8358 14.4688C24.3043 14.3928 24.6146 13.9496 24.5386 13.481C24.1967 11.4739 23.2469 9.64401 21.7969 8.19405C20.347 6.74409 18.5171 5.79433 16.51 5.45242C16.0414 5.37644 15.6045 5.6867 15.5222 6.14891C15.4399 6.61112 15.7438 7.06068 16.2124 7.13666Z" fill="#031600"/>
<path d="M29.9644 13.2339C29.4009 9.92873 27.8433 6.92117 25.4499 4.52778C23.0565 2.1344 20.049 0.576797 16.7438 0.0132757C16.2816 -0.0690364 15.8447 0.247549 15.7624 0.709763C15.6864 1.17831 15.9967 1.6152 16.4652 1.69751C19.4158 2.19771 22.1068 3.59702 24.2469 5.73081C26.387 7.87092 27.78 10.5619 28.2802 13.5125C28.3498 13.9304 28.7108 14.2216 29.1223 14.2216C29.173 14.2216 29.2173 14.2153 29.2679 14.209C29.7302 14.1393 30.0467 13.6961 29.9644 13.2339Z" fill="#031600"/>
</g>
<defs>
<clipPath id="clip0_416_88">
<rect width="30" height="30" fill="white"/>
</clipPath>
</defs>
</svg>
