<svg width="24" height="24" viewBox="0 0 24 24" fill="none" xmlns="http://www.w3.org/2000/svg">
<g clip-path="url(#clip0_354_881)">
<path d="M12 23.1431C18.154 23.1431 23.1428 18.1543 23.1428 12.0003C23.1428 5.84625 18.154 0.857422 12 0.857422C5.84594 0.857422 0.857117 5.84625 0.857117 12.0003C0.857117 18.1543 5.84594 23.1431 12 23.1431Z" stroke="#031600" stroke-width="1.5" stroke-linecap="round" stroke-linejoin="round"/>
<path d="M12 0.857422C12 0.857422 5.02286 7.01171 12 12.0003C18 16.286 12 23.1431 12 23.1431" stroke="#031600" stroke-width="1.5" stroke-linecap="round" stroke-linejoin="round"/>
<path d="M15.4285 9.42857C16.3753 9.42857 17.1428 8.66106 17.1428 7.71429C17.1428 6.76751 16.3753 6 15.4285 6C14.4817 6 13.7142 6.76751 13.7142 7.71429C13.7142 8.66106 14.4817 9.42857 15.4285 9.42857Z" stroke="#031600" stroke-width="1.5" stroke-linecap="round" stroke-linejoin="round"/>
<path d="M8.5714 17.9999C9.51818 17.9999 10.2857 17.2323 10.2857 16.2856C10.2857 15.3388 9.51818 14.5713 8.5714 14.5713C7.62463 14.5713 6.85712 15.3388 6.85712 16.2856C6.85712 17.2323 7.62463 17.9999 8.5714 17.9999Z" stroke="#031600" stroke-width="1.5" stroke-linecap="round" stroke-linejoin="round"/>
</g>
<defs>
<clipPath id="clip0_354_881">
<rect width="24" height="24" fill="white"/>
</clipPath>
</defs>
</svg>
