<svg width="24" height="24" viewBox="0 0 24 24" fill="none" xmlns="http://www.w3.org/2000/svg">
<g clip-path="url(#clip0_494_81)">
<path d="M23.1429 23.1437C23.1429 23.1437 16.2857 19.7151 16.2857 14.5723H7.71432C7.71432 19.7151 0.857178 23.1437 0.857178 23.1437" stroke="#031600" stroke-width="1.5" stroke-linecap="round" stroke-linejoin="round"/>
<path d="M18 9.4289C18.9094 9.4289 19.7814 9.06768 20.4244 8.4247C21.0674 7.78171 21.4286 6.90964 21.4286 6.00033C21.4286 5.09102 21.0674 4.21895 20.4244 3.57596C19.7814 2.93298 18.9094 2.57176 18 2.57176C17.2287 2.57137 16.4798 2.83107 15.8743 3.3089C15.5272 2.57499 14.9788 1.95476 14.2929 1.52041C13.607 1.08606 12.8119 0.855469 12 0.855469C11.1882 0.855469 10.393 1.08606 9.70715 1.52041C9.02126 1.95476 8.47285 2.57499 8.12576 3.3089C7.52027 2.83107 6.77136 2.57137 6.00004 2.57176C5.09073 2.57176 4.21866 2.93298 3.57568 3.57596C2.9327 4.21895 2.57147 5.09102 2.57147 6.00033C2.57147 6.90964 2.9327 7.78171 3.57568 8.4247C4.21866 9.06768 5.09073 9.4289 6.00004 9.4289" stroke="#031600" stroke-width="1.5" stroke-linecap="round" stroke-linejoin="round"/>
<path d="M9.42859 7.71484V14.572" stroke="#031600" stroke-width="1.5" stroke-linecap="round" stroke-linejoin="round"/>
<path d="M14.5715 7.71484V14.572" stroke="#031600" stroke-width="1.5" stroke-linecap="round" stroke-linejoin="round"/>
</g>
<defs>
<clipPath id="clip0_494_81">
<rect width="24" height="24" fill="white"/>
</clipPath>
</defs>
</svg>
