<svg width="24" height="24" viewBox="0 0 24 24" fill="none" xmlns="http://www.w3.org/2000/svg">
<path d="M8.96569 3.85712L9.70283 1.95426C9.82715 1.63208 10.0459 1.35496 10.3303 1.15919C10.6148 0.963426 10.9518 0.858137 11.2971 0.857117H12.7028C13.0482 0.858137 13.3851 0.963426 13.6696 1.15919C13.9541 1.35496 14.1728 1.63208 14.2971 1.95426L15.0343 3.85712L17.5371 5.29712L19.56 4.98855C19.8968 4.94283 20.2396 4.99827 20.5449 5.14784C20.8501 5.29741 21.104 5.53435 21.2743 5.82855L21.96 7.02855C22.1357 7.32743 22.2166 7.67257 22.1922 8.01841C22.1677 8.36425 22.0389 8.69454 21.8228 8.96569L20.5714 10.56V13.44L21.8571 15.0343C22.0732 15.3054 22.202 15.6357 22.2264 15.9815C22.2509 16.3274 22.17 16.6725 21.9943 16.9714L21.3085 18.1714C21.1383 18.4656 20.8844 18.7025 20.5791 18.8521C20.2739 19.0017 19.9311 19.0571 19.5943 19.0114L17.5714 18.7028L15.0685 20.1428L14.3314 22.0457C14.2071 22.3679 13.9884 22.645 13.7039 22.8408C13.4194 23.0365 13.0824 23.1418 12.7371 23.1428H11.2971C10.9518 23.1418 10.6148 23.0365 10.3303 22.8408C10.0459 22.645 9.82715 22.3679 9.70283 22.0457L8.96569 20.1428L6.46283 18.7028L4.43998 19.0114C4.10315 19.0571 3.76033 19.0017 3.45509 18.8521C3.14985 18.7025 2.89596 18.4656 2.72569 18.1714L2.03998 16.9714C1.86426 16.6725 1.78331 16.3274 1.80779 15.9815C1.83228 15.6357 1.96105 15.3054 2.17712 15.0343L3.42855 13.44V10.56L2.14283 8.96569C1.92677 8.69454 1.79799 8.36425 1.77351 8.01841C1.74902 7.67257 1.82998 7.32743 2.00569 7.02855L2.6914 5.82855C2.86167 5.53435 3.11556 5.29741 3.4208 5.14784C3.72604 4.99827 4.06886 4.94283 4.40569 4.98855L6.42855 5.29712L8.96569 3.85712ZM8.5714 12C8.5714 12.6781 8.77249 13.341 9.14922 13.9048C9.52596 14.4686 10.0614 14.9081 10.6879 15.1676C11.3144 15.4271 12.0038 15.495 12.6689 15.3627C13.3339 15.2304 13.9448 14.9038 14.4243 14.4243C14.9038 13.9448 15.2304 13.3339 15.3627 12.6689C15.495 12.0038 15.4271 11.3144 15.1676 10.6879C14.9081 10.0614 14.4686 9.52596 13.9048 9.14922C13.341 8.77248 12.6781 8.5714 12 8.5714C11.0907 8.5714 10.2186 8.93263 9.57561 9.57561C8.93263 10.2186 8.5714 11.0907 8.5714 12V12Z" stroke="#031600" stroke-width="1.5" stroke-linecap="round" stroke-linejoin="round"/>
</svg>
