<svg width="24" height="24" viewBox="0 0 24 24" fill="none" xmlns="http://www.w3.org/2000/svg">
<g clip-path="url(#clip0_518_992)">
<path d="M12.8057 11.8268C12.5514 11.9372 12.2772 11.9941 12 11.9941C11.7228 11.9941 11.4485 11.9372 11.1942 11.8268L1.42282 7.30105C1.26414 7.22102 1.1308 7.09851 1.03764 6.94718C0.944471 6.79584 0.895142 6.62162 0.895142 6.4439C0.895142 6.26619 0.944471 6.09197 1.03764 5.94063C1.1308 5.7893 1.26414 5.66679 1.42282 5.58676L11.1942 1.02676C11.4485 0.916349 11.7228 0.859375 12 0.859375C12.2772 0.859375 12.5514 0.916349 12.8057 1.02676L22.5771 5.55247C22.7358 5.63251 22.8691 5.75501 22.9623 5.90634C23.0554 6.05768 23.1048 6.2319 23.1048 6.40962C23.1048 6.58733 23.0554 6.76156 22.9623 6.91289C22.8691 7.06422 22.7358 7.18673 22.5771 7.26676L12.8057 11.8268Z" stroke="#031600" stroke-width="1.5" stroke-linecap="round" stroke-linejoin="round"/>
<path d="M23.1428 12.5977L12.6857 17.4148C12.4623 17.5167 12.2197 17.5694 11.9743 17.5694C11.7288 17.5694 11.4862 17.5167 11.2628 17.4148L0.857117 12.5977" stroke="#031600" stroke-width="1.5" stroke-linecap="round" stroke-linejoin="round"/>
<path d="M23.1428 18.168L12.6857 22.9851C12.4623 23.087 12.2197 23.1397 11.9743 23.1397C11.7288 23.1397 11.4862 23.087 11.2628 22.9851L0.857117 18.168" stroke="#031600" stroke-width="1.5" stroke-linecap="round" stroke-linejoin="round"/>
</g>
<defs>
<clipPath id="clip0_518_992">
<rect width="24" height="24" fill="white"/>
</clipPath>
</defs>
</svg>
