<svg width="24" height="24" viewBox="0 0 24 24" fill="none" xmlns="http://www.w3.org/2000/svg">
<path d="M8.96569 3.85938L9.70283 1.95652C9.82715 1.63434 10.0459 1.35722 10.3303 1.16145C10.6148 0.965685 10.9518 0.860395 11.2971 0.859375H12.7028C13.0482 0.860395 13.3851 0.965685 13.6696 1.16145C13.9541 1.35722 14.1728 1.63434 14.2971 1.95652L15.0343 3.85938L17.5371 5.29937L19.56 4.9908C19.8968 4.94508 20.2396 5.00053 20.5449 5.1501C20.8501 5.29967 21.104 5.53661 21.2743 5.8308L21.96 7.0308C22.1357 7.32969 22.2166 7.67483 22.1922 8.02067C22.1677 8.36651 22.0389 8.6968 21.8228 8.96795L20.5714 10.5622V13.4422L21.8571 15.0365C22.0732 15.3077 22.202 15.638 22.2264 15.9838C22.2509 16.3296 22.17 16.6748 21.9943 16.9737L21.3085 18.1737C21.1383 18.4679 20.8844 18.7048 20.5791 18.8544C20.2739 19.0039 19.9311 19.0594 19.5943 19.0137L17.5714 18.7051L15.0685 20.1451L14.3314 22.0479C14.2071 22.3701 13.9884 22.6472 13.7039 22.843C13.4194 23.0388 13.0824 23.1441 12.7371 23.1451H11.2971C10.9518 23.1441 10.6148 23.0388 10.3303 22.843C10.0459 22.6472 9.82715 22.3701 9.70283 22.0479L8.96569 20.1451L6.46283 18.7051L4.43998 19.0137C4.10315 19.0594 3.76033 19.0039 3.45509 18.8544C3.14985 18.7048 2.89596 18.4679 2.72569 18.1737L2.03998 16.9737C1.86426 16.6748 1.78331 16.3296 1.80779 15.9838C1.83228 15.638 1.96105 15.3077 2.17712 15.0365L3.42855 13.4422V10.5622L2.14283 8.96795C1.92677 8.6968 1.79799 8.36651 1.77351 8.02067C1.74902 7.67483 1.82998 7.32969 2.00569 7.0308L2.6914 5.8308C2.86167 5.53661 3.11556 5.29967 3.4208 5.1501C3.72604 5.00053 4.06886 4.94508 4.40569 4.9908L6.42855 5.29937L8.96569 3.85938ZM8.5714 12.0022C8.5714 12.6803 8.77249 13.3432 9.14922 13.907C9.52596 14.4709 10.0614 14.9103 10.6879 15.1698C11.3144 15.4293 12.0038 15.4972 12.6689 15.3649C13.3339 15.2326 13.9448 14.9061 14.4243 14.4266C14.9038 13.9471 15.2304 13.3362 15.3627 12.6711C15.495 12.006 15.4271 11.3167 15.1676 10.6902C14.9081 10.0637 14.4686 9.52822 13.9048 9.15148C13.341 8.77474 12.6781 8.57366 12 8.57366C11.0907 8.57366 10.2186 8.93488 9.57561 9.57787C8.93263 10.2208 8.5714 11.0929 8.5714 12.0022V12.0022Z" stroke="#031600" stroke-width="1.5" stroke-linecap="round" stroke-linejoin="round"/>
</svg>
