<svg width="30" height="30" viewBox="0 0 30 30" fill="none" xmlns="http://www.w3.org/2000/svg">
<g clip-path="url(#clip0_518_535)">
<path d="M1.07144 24.647C1.07144 24.647 5.35716 20.3613 15 20.3613C24.6429 20.3613 28.9286 24.647 28.9286 24.647" stroke="#031600" stroke-width="1.5" stroke-linecap="round" stroke-linejoin="round"/>
<path d="M15 20.3613V28.9328" stroke="#031600" stroke-width="1.5" stroke-linecap="round" stroke-linejoin="round"/>
<path d="M5.35715 28.9329L12.8571 20.4258" stroke="#031600" stroke-width="1.5" stroke-linecap="round" stroke-linejoin="round"/>
<path d="M24.6429 28.9329L17.1429 20.4258" stroke="#031600" stroke-width="1.5" stroke-linecap="round" stroke-linejoin="round"/>
<path d="M7.58571 16.0714C7.55305 15.715 7.55305 15.3564 7.58571 15C7.58571 13.0109 8.37589 11.1032 9.78241 9.6967C11.1889 8.29018 13.0966 7.5 15.0857 7.5C17.0748 7.5 18.9825 8.29018 20.389 9.6967C21.7955 11.1032 22.5857 13.0109 22.5857 15C22.6184 15.3564 22.6184 15.715 22.5857 16.0714" stroke="#031600" stroke-width="1.5" stroke-linecap="round" stroke-linejoin="round"/>
<path d="M1.07144 15H3.2143" stroke="#031600" stroke-width="1.5" stroke-linecap="round" stroke-linejoin="round"/>
<path d="M5.35715 5.36133L6.42858 6.43276" stroke="#031600" stroke-width="1.5" stroke-linecap="round" stroke-linejoin="round"/>
<path d="M15 1.07422V3.21708" stroke="#031600" stroke-width="1.5" stroke-linecap="round" stroke-linejoin="round"/>
<path d="M24.6428 5.36133L23.5714 6.43276" stroke="#031600" stroke-width="1.5" stroke-linecap="round" stroke-linejoin="round"/>
<path d="M28.9286 15H26.7858" stroke="#031600" stroke-width="1.5" stroke-linecap="round" stroke-linejoin="round"/>
</g>
<defs>
<clipPath id="clip0_518_535">
<rect width="30" height="30" fill="white"/>
</clipPath>
</defs>
</svg>
