<svg width="24" height="24" viewBox="0 0 24 24" fill="none" xmlns="http://www.w3.org/2000/svg">
<g clip-path="url(#clip0_511_41)">
<path d="M12 0.855469H13.7143C14.6236 0.855469 15.4957 1.21669 16.1387 1.85967C16.7816 2.50266 17.1429 3.37473 17.1429 4.28404V11.9983H12V0.855469Z" stroke="#031600" stroke-width="1.5" stroke-linecap="round" stroke-linejoin="round"/>
<path d="M6.85718 12H12V23.1429H10.2857C9.37644 23.1429 8.50436 22.7816 7.86138 22.1387C7.2184 21.4957 6.85718 20.6236 6.85718 19.7143V12Z" stroke="#031600" stroke-width="1.5" stroke-linecap="round" stroke-linejoin="round"/>
<path d="M23.1428 12V13.7143C23.1428 14.6236 22.7816 15.4957 22.1386 16.1387C21.4956 16.7816 20.6236 17.1429 19.7143 17.1429H12V12H23.1428Z" stroke="#031600" stroke-width="1.5" stroke-linecap="round" stroke-linejoin="round"/>
<path d="M12 6.85547V11.9983H0.857143V10.284C0.857143 9.37473 1.21837 8.50266 1.86135 7.85967C2.50433 7.21669 3.3764 6.85547 4.28571 6.85547L12 6.85547Z" stroke="#031600" stroke-width="1.5" stroke-linecap="round" stroke-linejoin="round"/>
</g>
<defs>
<clipPath id="clip0_511_41">
<rect width="24" height="24" fill="white"/>
</clipPath>
</defs>
</svg>
