<svg width="24" height="24" viewBox="0 0 24 24" fill="none" xmlns="http://www.w3.org/2000/svg">
<path d="M17.1436 2.57153H6.85784C5.91107 2.57153 5.14355 3.33905 5.14355 4.28582V12.8572C5.14355 13.804 5.91107 14.5715 6.85784 14.5715H17.1436C18.0903 14.5715 18.8578 13.804 18.8578 12.8572V4.28582C18.8578 3.33905 18.0903 2.57153 17.1436 2.57153Z" stroke="#031600" stroke-width="1.5" stroke-linecap="round" stroke-linejoin="round"/>
<path d="M5.14314 7.71436H2.57171C2.11705 7.71436 1.68102 7.89497 1.35952 8.21646C1.03803 8.53795 0.857422 8.97398 0.857422 9.42864V17.1429C0.857422 17.5976 1.03803 18.0336 1.35952 18.3551C1.68102 18.6766 2.11705 18.8572 2.57171 18.8572H21.4289C21.8835 18.8572 22.3195 18.6766 22.641 18.3551C22.9625 18.0336 23.1431 17.5976 23.1431 17.1429V9.42864C23.1431 8.97398 22.9625 8.53795 22.641 8.21646C22.3195 7.89497 21.8835 7.71436 21.4289 7.71436H18.8574" stroke="#031600" stroke-width="1.5" stroke-linecap="round" stroke-linejoin="round"/>
<path d="M6.85714 18.8572L6 23.1429" stroke="#031600" stroke-width="1.5" stroke-linecap="round" stroke-linejoin="round"/>
<path d="M17.1436 18.8572L18.0007 23.1429" stroke="#031600" stroke-width="1.5" stroke-linecap="round" stroke-linejoin="round"/>
</svg>
