<svg width="24" height="24" viewBox="0 0 24 24" fill="none" xmlns="http://www.w3.org/2000/svg">
<g clip-path="url(#clip0_354_962)">
<path d="M18 18.8567H21.4286C21.8832 18.8567 22.3193 18.6761 22.6408 18.3546C22.9622 18.0331 23.1429 17.5971 23.1429 17.1424V9.42815C23.1429 8.9735 22.9622 8.53746 22.6408 8.21597C22.3193 7.89448 21.8832 7.71387 21.4286 7.71387H2.57143C2.11678 7.71387 1.68074 7.89448 1.35925 8.21597C1.03776 8.53746 0.857147 8.9735 0.857147 9.42815V17.1424C0.857147 17.5971 1.03776 18.0331 1.35925 18.3546C1.68074 18.6761 2.11678 18.8567 2.57143 18.8567H6" stroke="#031600" stroke-width="1.5" stroke-linecap="round" stroke-linejoin="round"/>
<path d="M6 16.2856V22.2856C6 22.513 6.09031 22.731 6.25105 22.8917C6.4118 23.0525 6.62981 23.1428 6.85714 23.1428H17.1429C17.3702 23.1428 17.5882 23.0525 17.7489 22.8917C17.9097 22.731 18 22.513 18 22.2856V16.2856H6Z" stroke="#031600" stroke-width="1.5" stroke-linecap="round" stroke-linejoin="round"/>
<path d="M18 7.71408V1.71408C18 1.48675 17.9097 1.26873 17.7489 1.10798C17.5882 0.947239 17.3702 0.856934 17.1429 0.856934H6.85714C6.62981 0.856934 6.4118 0.947239 6.25105 1.10798C6.09031 1.26873 6 1.48675 6 1.71408V7.71408" stroke="#031600" stroke-width="1.5" stroke-linecap="round" stroke-linejoin="round"/>
<path d="M18.8571 12H17.1429" stroke="#031600" stroke-width="1.5" stroke-linecap="round" stroke-linejoin="round"/>
</g>
<defs>
<clipPath id="clip0_354_962">
<rect width="24" height="24" fill="white"/>
</clipPath>
</defs>
</svg>
