<svg width="24" height="24" viewBox="0 0 24 24" fill="none" xmlns="http://www.w3.org/2000/svg">
<g clip-path="url(#clip0_401_1759)">
<path d="M21.4286 0.857117H2.57146C1.62469 0.857117 0.857178 1.62463 0.857178 2.5714V21.4285C0.857178 22.3753 1.62469 23.1428 2.57146 23.1428H21.4286C22.3754 23.1428 23.1429 22.3753 23.1429 21.4285V2.5714C23.1429 1.62463 22.3754 0.857117 21.4286 0.857117Z" stroke="#031600" stroke-width="1.5" stroke-linecap="round" stroke-linejoin="round"/>
<path d="M9.41138 18.1028V11.5371C9.41617 11.4362 9.44565 11.338 9.49724 11.2512C9.54884 11.1643 9.62095 11.0915 9.70727 11.039C9.79359 10.9865 9.89147 10.9561 9.99231 10.9502C10.0932 10.9444 10.1939 10.9635 10.2857 11.0057L15.9771 14.2799C16.0693 14.3367 16.1454 14.4162 16.1981 14.5107C16.2509 14.6052 16.2786 14.7117 16.2786 14.8199C16.2786 14.9282 16.2509 15.0347 16.1981 15.1292C16.1454 15.2237 16.0693 15.3032 15.9771 15.3599L10.2857 18.6514C10.1923 18.6898 10.0911 18.7053 9.99055 18.6967C9.88998 18.6881 9.7929 18.6556 9.7074 18.602C9.6219 18.5483 9.55043 18.4751 9.49895 18.3882C9.44746 18.3014 9.41744 18.2036 9.41138 18.1028V18.1028Z" stroke="#031600" stroke-width="1.5" stroke-linecap="round" stroke-linejoin="round"/>
<path d="M0.857178 6.85712H23.1429" stroke="#031600" stroke-width="1.5" stroke-linecap="round" stroke-linejoin="round"/>
<path d="M6.85718 6.85712L9.42861 0.857117" stroke="#031600" stroke-width="1.5" stroke-linecap="round" stroke-linejoin="round"/>
<path d="M14.5715 6.85712L17.143 0.857117" stroke="#031600" stroke-width="1.5" stroke-linecap="round" stroke-linejoin="round"/>
</g>
<defs>
<clipPath id="clip0_401_1759">
<rect width="24" height="24" fill="white"/>
</clipPath>
</defs>
</svg>
