<svg width="24" height="24" viewBox="0 0 24 24" fill="none" xmlns="http://www.w3.org/2000/svg">
<g clip-path="url(#clip0_157_776)">
<path d="M18.9676 14.8657C18.4762 14.3541 17.8836 14.0805 17.2555 14.0805C16.6324 14.0805 16.0347 14.349 15.5231 14.8606L13.9225 16.4562C13.7908 16.3853 13.6591 16.3194 13.5324 16.2536C13.3501 16.1624 13.1779 16.0763 13.031 15.9851C11.5316 15.0328 10.169 13.7918 8.86216 12.1861C8.22899 11.3857 7.8035 10.7121 7.49451 10.0282C7.90987 9.64833 8.29484 9.25323 8.66968 8.87333C8.81151 8.7315 8.95334 8.5846 9.09517 8.44277C10.1589 7.37904 10.1589 6.00127 9.09517 4.93754L7.71233 3.55469C7.5553 3.39767 7.39321 3.23558 7.24125 3.07349C6.93733 2.75943 6.61821 2.43525 6.28896 2.13133C5.79762 1.64505 5.21004 1.38672 4.59206 1.38672C3.97409 1.38672 3.37637 1.64505 2.86984 2.13133C2.86477 2.13639 2.86477 2.13639 2.85971 2.14146L1.13748 3.87888C0.489117 4.52724 0.119345 5.31744 0.0382993 6.23427C-0.0832695 7.71336 0.352352 9.09114 0.686666 9.99277C1.50725 12.2063 2.73307 14.2578 4.56167 16.4562C6.7803 19.1054 9.44975 21.1974 12.4991 22.6714C13.6641 23.2235 15.2192 23.8769 16.9566 23.9884C17.063 23.9934 17.1744 23.9985 17.2757 23.9985C18.4458 23.9985 19.4285 23.5781 20.1984 22.7423C20.2035 22.7322 20.2136 22.7271 20.2187 22.717C20.4821 22.3979 20.786 22.1091 21.1051 21.8001C21.323 21.5925 21.5458 21.3746 21.7636 21.1467C22.2651 20.625 22.5285 20.0171 22.5285 19.3941C22.5285 18.766 22.26 18.1632 21.7484 17.6567L18.9676 14.8657ZM20.781 20.1995C20.7759 20.1995 20.7759 20.2045 20.781 20.1995C20.5834 20.4122 20.3808 20.6047 20.163 20.8175C19.8337 21.1315 19.4994 21.4608 19.1854 21.8305C18.6738 22.3776 18.071 22.6359 17.2808 22.6359C17.2048 22.6359 17.1238 22.6359 17.0478 22.6309C15.5434 22.5346 14.1453 21.947 13.0968 21.4456C10.2298 20.0577 7.71233 18.0872 5.62033 15.59C3.89304 13.5081 2.73814 11.5833 1.97327 9.51663C1.50219 8.25535 1.32997 7.27267 1.40595 6.34571C1.4566 5.75306 1.68454 5.26172 2.10497 4.8413L3.83226 3.11401C4.08046 2.881 4.34386 2.75437 4.60219 2.75437C4.92131 2.75437 5.17964 2.94685 5.34174 3.10894C5.3468 3.11401 5.35187 3.11907 5.35693 3.12414C5.66592 3.41286 5.95971 3.71172 6.2687 4.03084C6.42572 4.19293 6.58781 4.35502 6.74991 4.52218L8.13275 5.90502C8.66968 6.44195 8.66968 6.93836 8.13275 7.47529C7.98586 7.62218 7.84403 7.76908 7.69713 7.91091C7.27164 8.34653 6.86641 8.75176 6.42572 9.14686C6.41559 9.15699 6.40546 9.16205 6.4004 9.17218C5.96478 9.60781 6.04582 10.0333 6.137 10.322C6.14206 10.3372 6.14713 10.3524 6.15219 10.3676C6.51183 11.2389 7.01837 12.0594 7.78831 13.0371L7.79337 13.0421C9.19141 14.7643 10.6654 16.1067 12.2914 17.1349C12.4991 17.2666 12.7118 17.373 12.9145 17.4743C13.0968 17.5655 13.269 17.6516 13.4159 17.7428C13.4362 17.7529 13.4564 17.7681 13.4767 17.7782C13.6489 17.8643 13.811 17.9049 13.9782 17.9049C14.3986 17.9049 14.662 17.6415 14.7481 17.5554L16.4805 15.823C16.6527 15.6508 16.9262 15.4431 17.2453 15.4431C17.5594 15.4431 17.8177 15.6407 17.9748 15.8129C17.9798 15.8179 17.9798 15.8179 17.9849 15.823L20.7759 18.614C21.2976 19.1307 21.2976 19.6626 20.781 20.1995Z" fill="#89EA5F"/>
<path d="M12.9702 5.7081C14.2973 5.93098 15.5028 6.55909 16.4653 7.5215C17.4277 8.48392 18.0507 9.68948 18.2787 11.0166C18.3344 11.3509 18.6231 11.5839 18.9524 11.5839C18.9929 11.5839 19.0283 11.5789 19.0689 11.5738C19.4437 11.513 19.6919 11.1584 19.6311 10.7836C19.3576 9.17788 18.5978 7.71399 17.4378 6.55402C16.2778 5.39405 14.814 4.63425 13.2082 4.36072C12.8334 4.29993 12.4839 4.54814 12.418 4.91791C12.3522 5.28768 12.5953 5.64732 12.9702 5.7081Z" fill="#89EA5F"/>
<path d="M23.9721 10.5869C23.5213 7.94279 22.2752 5.53674 20.3605 3.62203C18.4458 1.70732 16.0398 0.461243 13.3957 0.0104253C13.0259 -0.0554245 12.6764 0.197844 12.6105 0.567615C12.5497 0.942452 12.7979 1.29196 13.1728 1.35781C15.5332 1.75798 17.686 2.87742 19.3981 4.58445C21.1102 6.29654 22.2246 8.44932 22.6248 10.8098C22.6805 11.1441 22.9692 11.3771 23.2984 11.3771C23.339 11.3771 23.3744 11.372 23.415 11.367C23.7847 11.3113 24.038 10.9567 23.9721 10.5869Z" fill="#89EA5F"/>
</g>
<defs>
<clipPath id="clip0_157_776">
<rect width="24" height="24" fill="white"/>
</clipPath>
</defs>
</svg>
