<svg width="16" height="16" viewBox="0 0 16 16" fill="none" xmlns="http://www.w3.org/2000/svg">
<g clip-path="url(#clip0_677_312)">
<mask id="mask0_677_312" style="mask-type:luminance" maskUnits="userSpaceOnUse" x="0" y="0" width="16" height="16">
<path d="M0 16L16 16L16 0L0 0L0 16Z" fill="white"/>
</mask>
<g mask="url(#mask0_677_312)">
<path d="M1.33561 8.66695H13.0596L9.53094 12.1956C9.46727 12.2571 9.41648 12.3307 9.38154 12.412C9.3466 12.4933 9.32821 12.5808 9.32744 12.6693C9.32667 12.7579 9.34354 12.8456 9.37706 12.9276C9.41058 13.0095 9.46009 13.0839 9.52268 13.1465C9.58528 13.2091 9.65971 13.2586 9.74164 13.2922C9.82357 13.3257 9.91136 13.3425 9.99983 13.3418C10.0884 13.341 10.1758 13.3226 10.2572 13.2877C10.3385 13.2527 10.4121 13.2019 10.4736 13.1383L15.1402 8.47162C15.2652 8.3466 15.3354 8.17706 15.3354 8.00028C15.3354 7.82351 15.2652 7.65397 15.1402 7.52895L10.4736 2.86228C10.3478 2.74084 10.1794 2.67365 10.0046 2.67517C9.82988 2.67668 9.66267 2.7468 9.53906 2.8704C9.41546 2.99401 9.34535 3.16122 9.34383 3.33601C9.34231 3.51081 9.4095 3.67921 9.53094 3.80495L13.0596 7.33362H1.33561C1.1588 7.33362 0.989231 7.40385 0.864206 7.52888C0.739182 7.6539 0.668945 7.82347 0.668945 8.00028C0.668945 8.17709 0.739182 8.34666 0.864206 8.47169C0.989231 8.59671 1.1588 8.66695 1.33561 8.66695Z" fill="#89EA5F"/>
</g>
</g>
<defs>
<clipPath id="clip0_677_312">
<rect width="16" height="16" fill="white"/>
</clipPath>
</defs>
</svg>
