<svg width="130" height="130" viewBox="0 0 130 130" fill="none" xmlns="http://www.w3.org/2000/svg">
<g clip-path="url(#clip0_801_418)">
<path d="M65 130C100.899 130 130 100.899 130 65C130 29.1015 100.899 0 65 0C29.1015 0 0 29.1015 0 65C0 100.899 29.1015 130 65 130Z" fill="#89EA5F"/>
<path d="M65 97C82.6731 97 97 82.6731 97 65C97 47.3269 82.6731 33 65 33C47.3269 33 33 47.3269 33 65C33 82.6731 47.3269 97 65 97Z" fill="#031600"/>
<path d="M69.8756 70.1464C72.8019 67.2471 72.8019 62.5464 69.8756 59.6471C66.9494 56.7478 62.2051 56.7478 59.2789 59.6471C56.3526 62.5464 56.3526 67.2471 59.2789 70.1464C62.2051 73.0457 66.9494 73.0457 69.8756 70.1464Z" fill="white"/>
<path d="M60.9609 55.1679C60.9609 51.209 64.2002 47.9995 68.1959 47.9995C68.1955 51.9584 64.9566 55.1679 60.9609 55.1679Z" fill="white"/>
<path d="M55.4956 59.7474C52.9271 56.7148 53.3264 52.1933 56.3872 49.6484C58.9556 52.6814 58.5563 57.2025 55.4956 59.7474Z" fill="white"/>
<path d="M54.2785 66.7366C50.3435 66.0493 47.7159 62.3314 48.41 58.4326C52.345 59.1199 54.9722 62.8382 54.2785 66.7366Z" fill="white"/>
<path d="M55.4956 59.7474C52.9271 56.7148 53.3264 52.1933 56.3872 49.6484C58.9556 52.6814 58.5563 57.2025 55.4956 59.7474Z" fill="white"/>
<path d="M57.8831 72.8651C54.4226 74.8446 49.9978 73.67 48 70.2414C51.4604 68.2619 55.8852 69.4365 57.8831 72.8651Z" fill="white"/>
<path d="M57.8831 72.8651C54.4226 74.8446 49.9978 73.67 48 70.2414C51.4604 68.2619 55.8852 69.4365 57.8831 72.8651Z" fill="white"/>
<path d="M64.6187 75.265C63.2522 78.9852 59.1005 80.9033 55.3457 79.5494C56.7126 75.8288 60.8639 73.9107 64.6187 75.265Z" fill="white"/>
<path d="M64.6187 75.265C63.2522 78.9852 59.1005 80.9033 55.3457 79.5494C56.7126 75.8288 60.8639 73.9107 64.6187 75.265Z" fill="white"/>
<path d="M71.3347 72.8125C72.7012 76.5328 70.7653 80.6463 67.0105 82.0002C65.644 78.2803 67.5799 74.1668 71.3347 72.8125Z" fill="white"/>
<path d="M71.3347 72.8125C72.7012 76.5328 70.7653 80.6463 67.0105 82.0002C65.644 78.2803 67.5799 74.1668 71.3347 72.8125Z" fill="white"/>
<path d="M74.8885 66.6567C78.3489 68.6362 79.5344 73.0203 77.5366 76.4489C74.0762 74.4694 72.8906 70.0853 74.8885 66.6567Z" fill="white"/>
<path d="M74.8885 66.6567C78.3489 68.6362 79.5344 73.0203 77.5366 76.4489C74.0762 74.4694 72.8906 70.0853 74.8885 66.6567Z" fill="white"/>
<path d="M73.6191 59.6774C77.5541 58.9901 81.3065 61.5932 82.0002 65.4919C78.0652 66.1796 74.3128 63.5762 73.6191 59.6774Z" fill="white"/>
<path d="M73.6191 59.6774C77.5541 58.9901 81.3065 61.5932 82.0002 65.4919C78.0652 66.1796 74.3128 63.5762 73.6191 59.6774Z" fill="white"/>
<path d="M68.1172 55.1402C70.6857 52.1077 75.2492 51.712 78.3099 54.2569C75.7418 57.2894 71.1783 57.6851 68.1172 55.1402Z" fill="white"/>
<path d="M70.0339 21.3563C69.1017 21.2438 68.2917 20.9319 67.6038 20.4206C66.916 19.9092 66.4066 19.2266 66.0757 18.3728C65.7447 17.519 65.6483 16.5245 65.7862 15.3894C65.9254 14.2449 66.2579 13.2974 66.7838 12.547C67.3151 11.7925 67.9756 11.2511 68.7655 10.9228C69.5607 10.5904 70.4197 10.4798 71.3425 10.5912C71.9546 10.665 72.5113 10.8203 73.0128 11.0569C73.5149 11.2888 73.9461 11.5931 74.3063 11.9697C74.6719 12.3422 74.953 12.7807 75.1496 13.2851C75.3468 13.7849 75.444 14.3416 75.441 14.9552L73.1953 14.6842C73.1877 14.393 73.1343 14.1248 73.0351 13.8796C72.9407 13.635 72.8019 13.4207 72.6189 13.2368C72.4405 13.0534 72.227 12.9039 71.9783 12.7883C71.7349 12.6685 71.4602 12.5901 71.1542 12.5532C70.6174 12.4884 70.1277 12.5673 69.6851 12.79C69.2477 13.0085 68.8849 13.3598 68.5968 13.8438C68.3139 14.3237 68.128 14.9295 68.0391 15.6612C67.9484 16.407 67.985 17.0492 68.1488 17.5878C68.3132 18.1216 68.5822 18.542 68.9557 18.8488C69.3293 19.1557 69.782 19.3412 70.314 19.4054C70.6106 19.4412 70.8909 19.4346 71.1548 19.3855C71.4188 19.3364 71.6587 19.2488 71.8747 19.1225C72.0907 18.9963 72.2777 18.8332 72.4358 18.6334C72.5991 18.4294 72.7214 18.1895 72.8027 17.9138L75.0485 18.1847C74.9332 18.6611 74.7332 19.1081 74.4483 19.5259C74.1682 19.9442 73.8113 20.3057 73.3778 20.6104C72.9448 20.9103 72.4474 21.1311 71.8856 21.2728C71.3244 21.4097 70.7071 21.4375 70.0339 21.3563Z" fill="#031600"/>
<path d="M79.3174 23.5646C78.5621 23.2976 77.9643 22.9059 77.5242 22.3894C77.0902 21.8701 76.8257 21.2703 76.7307 20.59C76.6418 19.9068 76.7337 19.1823 77.0064 18.4163C77.2822 17.6415 77.6699 17.019 78.1694 16.5488C78.675 16.0757 79.2597 15.776 79.9236 15.6496C80.5936 15.5204 81.3062 15.5892 82.0616 15.8562C82.8215 16.1247 83.4184 16.5186 83.8524 17.0379C84.2925 17.5544 84.557 18.1542 84.6459 18.8374C84.7409 19.5177 84.6505 20.2452 84.3746 21.0201C84.1019 21.786 83.7128 22.4055 83.2073 22.8786C82.7078 23.3488 82.123 23.6486 81.4531 23.7778C80.7891 23.9041 80.0773 23.8331 79.3174 23.5646ZM79.9063 21.9528C80.2505 22.0744 80.5729 22.0806 80.8734 21.9712C81.1756 21.8574 81.4451 21.6518 81.6817 21.3544C81.9229 21.0586 82.1204 20.6948 82.2742 20.2628C82.4295 19.8264 82.5063 19.4199 82.5045 19.0432C82.5072 18.6682 82.4264 18.3439 82.2622 18.0702C82.0979 17.7966 81.8437 17.599 81.4996 17.4774C81.1509 17.3542 80.8241 17.3465 80.519 17.4542C80.2184 17.5636 79.9483 17.7639 79.7088 18.0553C79.4737 18.3482 79.2784 18.7129 79.1231 19.1493C78.9693 19.5812 78.8903 19.987 78.886 20.3665C78.8862 20.7476 78.9676 21.0771 79.1303 21.3552C79.299 21.6304 79.5577 21.8296 79.9063 21.9528Z" fill="#031600"/>
<path d="M88.5339 22.528L86.1828 26.4618L84.2941 25.3414L88.3631 18.5332L90.2212 19.6355L89.4969 20.8474L89.5642 20.8873C89.9592 20.5772 90.395 20.4068 90.8715 20.376C91.348 20.3453 91.8409 20.481 92.3503 20.7832C92.823 21.0636 93.1726 21.4113 93.3993 21.8262C93.6301 22.2436 93.7292 22.7011 93.6967 23.1987C93.6643 23.6964 93.4891 24.2111 93.1712 24.7429L90.5835 29.0726L88.6949 27.9522L91.0824 23.9574C91.3299 23.5433 91.416 23.1545 91.3408 22.7909C91.268 22.4232 91.0421 22.127 90.6631 21.9022C90.4105 21.7523 90.1524 21.6762 89.8889 21.6738C89.6278 21.6674 89.3804 21.7351 89.1466 21.8768C88.9128 22.0186 88.7086 22.2357 88.5339 22.528Z" fill="#031600"/>
<path d="M99.8997 26.5353L98.8367 27.8116L95.1525 24.7656L96.2155 23.4894L99.8997 26.5353ZM98.2614 22.731L99.953 24.1296L95.2285 29.8019C95.0589 30.0055 94.9789 30.1941 94.9883 30.3677C95.0008 30.5377 95.1074 30.7056 95.3082 30.8716C95.3739 30.9259 95.4514 30.9808 95.5408 31.0363C95.6302 31.0917 95.7101 31.1363 95.7806 31.1701L94.9949 32.6572C94.7634 32.5579 94.5494 32.4485 94.353 32.3291C94.1603 32.2128 93.98 32.0852 93.8121 31.9464C93.2026 31.4425 92.8575 30.9024 92.7768 30.326C92.6991 29.746 92.8904 29.1796 93.3507 28.627L98.2614 22.731Z" fill="#031600"/>
<path d="M97.1097 35.1702C96.7757 34.7959 96.5404 34.4006 96.4037 33.9842C96.2737 33.5683 96.2642 33.1595 96.3753 32.7576C96.4863 32.3558 96.7368 31.9823 97.1267 31.637C97.4599 31.3419 97.7899 31.157 98.1168 31.0825C98.4472 31.0048 98.7745 31.0089 99.0986 31.0948C99.4228 31.1807 99.7384 31.3247 100.046 31.5268C100.353 31.7288 100.653 31.9656 100.946 32.2371C101.284 32.5514 101.561 32.7986 101.779 32.9787C101.997 33.1588 102.18 33.2683 102.329 33.3071C102.485 33.3463 102.624 33.311 102.748 33.2011L102.775 33.1776C103.02 32.961 103.14 32.7154 103.136 32.4407C103.135 32.1695 103.01 31.8945 102.761 31.6155C102.5 31.3224 102.225 31.1457 101.936 31.0852C101.654 31.0252 101.389 31.0549 101.14 31.1742L99.9055 29.5456C100.336 29.3031 100.784 29.1787 101.248 29.1724C101.715 29.163 102.179 29.2738 102.639 29.5049C103.106 29.7364 103.55 30.0887 103.972 30.5619C104.265 30.8903 104.507 31.2391 104.697 31.6084C104.887 31.9776 105.004 32.3509 105.049 32.7284C105.1 33.1063 105.06 33.4771 104.928 33.8408C104.795 34.2046 104.554 34.5419 104.203 34.8526L100.194 38.4031L98.8 36.8405L99.6294 36.1059L99.5915 36.0636C99.3186 36.1346 99.0404 36.1534 98.7568 36.1201C98.4768 36.0836 98.1968 35.9902 97.9167 35.84C97.6402 35.6866 97.3712 35.4633 97.1097 35.1702ZM98.6681 34.6339C98.8824 34.8741 99.1193 35.0436 99.3788 35.1424C99.6451 35.2417 99.9054 35.2703 100.16 35.2283C100.421 35.1867 100.654 35.0749 100.86 34.8928L101.493 34.3325C101.417 34.3113 101.323 34.2673 101.213 34.2006C101.106 34.1375 100.993 34.0606 100.874 33.9699C100.755 33.8793 100.638 33.7871 100.522 33.6933C100.411 33.5964 100.308 33.5101 100.215 33.4343C100.014 33.2652 99.8163 33.1365 99.6233 33.0483C99.4339 32.9568 99.2497 32.9176 99.0709 32.9306C98.8988 32.9439 98.7348 33.0197 98.5788 33.1578C98.3555 33.3556 98.2579 33.5875 98.2859 33.8535C98.3138 34.1195 98.4413 34.3797 98.6681 34.6339Z" fill="#031600"/>
<path d="M102.878 42.8625C102.46 42.1701 102.249 41.486 102.245 40.8102C102.245 40.132 102.427 39.5022 102.79 38.9208C103.157 38.337 103.686 37.8381 104.377 37.4241C105.076 37.0052 105.77 36.7711 106.46 36.7218C107.152 36.6765 107.797 36.814 108.394 37.1343C108.991 37.4546 109.498 37.9589 109.913 38.6472C110.27 39.2384 110.474 39.8192 110.525 40.3896C110.578 40.9641 110.488 41.4977 110.255 41.9907C110.021 42.4836 109.647 42.9005 109.134 43.2413L108.063 41.4678C108.271 41.2991 108.429 41.1109 108.536 40.9034C108.643 40.6958 108.691 40.477 108.679 40.2469C108.667 40.0167 108.592 39.7863 108.453 39.5555C108.277 39.2639 108.043 39.0563 107.753 38.9327C107.469 38.8106 107.138 38.7801 106.76 38.8413C106.388 38.9041 105.987 39.0645 105.556 39.3227C105.125 39.5808 104.791 39.8611 104.553 40.1636C104.317 40.4702 104.183 40.7794 104.15 41.0915C104.119 41.4075 104.192 41.7113 104.368 42.0028C104.564 42.3268 104.83 42.5392 105.168 42.6401C105.51 42.7386 105.877 42.7059 106.271 42.5418L107.341 44.3153C106.804 44.5986 106.26 44.7341 105.711 44.7217C105.165 44.7069 104.647 44.5458 104.157 44.2383C103.671 43.9285 103.245 43.4699 102.878 42.8625Z" fill="#031600"/>
<path d="M114.193 47.7928L112.652 48.4215L110.838 44.0076L112.378 43.3789L114.193 47.7928ZM114.541 43.6677L115.375 45.6943L108.529 48.4884C108.283 48.5888 108.123 48.7177 108.05 48.8754C107.981 49.0313 107.995 49.2295 108.094 49.4699C108.127 49.5486 108.169 49.6334 108.222 49.7242C108.275 49.815 108.324 49.8918 108.37 49.9546L106.975 50.8993C106.818 50.7032 106.681 50.5065 106.564 50.3091C106.448 50.1162 106.349 49.9191 106.267 49.718C105.967 48.9878 105.917 48.3495 106.117 47.8029C106.322 47.2546 106.758 46.8443 107.426 46.572L114.541 43.6677Z" fill="#031600"/>
<path d="M119.742 61.1308L119.999 63.3486L113.165 64.1341C112.398 64.2224 111.703 64.1168 111.081 63.8173C110.464 63.5219 109.958 63.0664 109.562 62.4508C109.166 61.8352 108.918 61.0932 108.817 60.2249C108.717 59.3565 108.789 58.5777 109.034 57.8884C109.278 57.1992 109.667 56.6408 110.2 56.2133C110.738 55.7852 111.391 55.5271 112.159 55.4388L118.992 54.6533L119.248 56.8641L112.598 57.6285C112.198 57.6745 111.85 57.8049 111.555 58.0195C111.265 58.2336 111.049 58.5106 110.907 58.8503C110.769 59.1895 110.725 59.5727 110.775 59.9998C110.825 60.4317 110.955 60.7972 111.167 61.0963C111.383 61.3949 111.656 61.6132 111.987 61.7511C112.324 61.8932 112.692 61.9412 113.092 61.8952L119.742 61.1308Z" fill="#031600"/>
<path d="M114.417 73.9102L114.485 71.902C114.74 71.8738 114.968 71.7552 115.169 71.5462C115.375 71.3377 115.495 71.0429 115.531 70.6619C115.563 70.3232 115.519 70.032 115.4 69.7882C115.279 69.5491 115.101 69.4184 114.865 69.3963C114.676 69.3786 114.506 69.4362 114.356 69.5692C114.209 69.7073 114.081 69.9539 113.971 70.309L113.553 71.7148C113.324 72.467 113.018 73.0148 112.633 73.3584C112.248 73.7019 111.769 73.8468 111.198 73.7932C110.674 73.744 110.23 73.5505 109.867 73.2127C109.508 72.8752 109.243 72.4327 109.071 71.885C108.903 71.3378 108.852 70.7231 108.916 70.041C109.015 68.9967 109.313 68.1846 109.811 67.6049C110.309 67.0299 110.938 66.7259 111.698 66.6929L111.609 68.8415C111.282 68.8819 111.023 69.0191 110.834 69.2529C110.646 69.4867 110.533 69.7988 110.496 70.1892C110.46 70.5703 110.506 70.8855 110.635 71.1349C110.763 71.389 110.943 71.5269 111.175 71.5486C111.567 71.5854 111.863 71.2715 112.064 70.6069L112.476 69.2717C112.704 68.5195 113.025 67.973 113.438 67.6322C113.852 67.2913 114.354 67.1486 114.944 67.204C115.454 67.2518 115.88 67.4318 116.222 67.7439C116.564 68.056 116.81 68.4707 116.961 68.988C117.112 69.5099 117.156 70.1072 117.092 70.7799C116.998 71.7772 116.711 72.5405 116.232 73.0698C115.758 73.6043 115.153 73.8844 114.417 73.9102Z" fill="#031600"/>
<path d="M110.997 82.3854L112.832 83.2043L112.357 81.2539L113.735 81.0132L113.936 83.0064L115.39 81.6222L116.294 82.7028L114.66 83.8771L116.589 84.4434L116.108 85.7398L114.271 84.9276L114.746 86.878L113.356 87.1071L113.153 85.1206L111.702 86.4981L110.809 85.4291L112.442 84.2547L110.516 83.6818L110.997 82.3854Z" fill="#031600"/>
<path d="M99.9539 92.7028C100.521 91.9569 101.199 91.4166 101.989 91.0819C102.778 90.7471 103.627 90.6522 104.534 90.7971C105.441 90.9421 106.352 91.3596 107.267 92.0498C108.19 92.7458 108.844 93.509 109.23 94.3395C109.617 95.1766 109.754 96.0178 109.641 96.8631C109.529 97.715 109.192 98.5101 108.631 99.2484C108.259 99.7381 107.844 100.14 107.387 100.452C106.933 100.768 106.452 100.986 105.944 101.106C105.437 101.233 104.915 101.255 104.378 101.17C103.846 101.088 103.314 100.892 102.783 100.58L104.149 98.783C104.405 98.9231 104.665 99.0122 104.927 99.0502C105.187 99.092 105.443 99.0804 105.694 99.0154C105.943 98.9542 106.18 98.8456 106.406 98.6898C106.632 98.5405 106.838 98.3435 107.025 98.0986C107.351 97.6692 107.529 97.2079 107.559 96.7147C107.589 96.2282 107.467 95.7391 107.193 95.2474C106.919 94.7623 106.487 94.2973 105.897 93.8524C105.296 93.3989 104.721 93.1071 104.171 92.977C103.625 92.8498 103.125 92.8698 102.671 93.0369C102.217 93.2039 101.828 93.5003 101.505 93.926C101.324 94.1633 101.189 94.4079 101.099 94.6599C101.008 94.9118 100.964 95.1625 100.964 95.4119C100.965 95.6614 101.012 95.9045 101.106 96.1412C101.201 96.3845 101.347 96.6105 101.546 96.8193L100.18 98.6162C99.825 98.2772 99.538 97.88 99.3191 97.4244C99.0973 96.9726 98.9634 96.4835 98.9175 95.9569C98.8753 95.4332 98.9342 94.8939 99.0942 94.3389C99.2579 93.7868 99.5445 93.2414 99.9539 92.7028Z" fill="#031600"/>
<path d="M93.3674 99.5952C93.978 99.0779 94.6179 98.7592 95.2871 98.6388C95.9557 98.5252 96.6092 98.598 97.2476 98.8573C97.8854 99.1233 98.4685 99.5659 98.9969 100.185C99.5314 100.811 99.8775 101.458 100.035 102.124C100.193 102.797 100.16 103.452 99.9363 104.087C99.7126 104.73 99.2954 105.309 98.6847 105.826C98.0705 106.347 97.4291 106.664 96.7604 106.777C96.0912 106.898 95.4377 106.825 94.7999 106.559C94.1615 106.3 93.5751 105.857 93.0406 105.23C92.5123 104.611 92.1694 103.965 92.0122 103.292C91.8544 102.626 91.8874 101.971 92.1111 101.329C92.3344 100.694 92.7531 100.116 93.3674 99.5952ZM94.4716 100.911C94.1934 101.147 94.0264 101.422 93.9706 101.736C93.9179 102.053 93.9613 102.388 94.1008 102.742C94.2367 103.098 94.4536 103.451 94.7516 103.8C95.0527 104.152 95.3671 104.423 95.6951 104.61C96.0194 104.8 96.3416 104.893 96.6615 104.889C96.9815 104.885 97.2806 104.765 97.5588 104.529C97.8406 104.29 98.0113 104.012 98.0707 103.695C98.1265 103.381 98.0879 103.048 97.9551 102.696C97.8187 102.346 97.5999 101.995 97.2989 101.642C97.0009 101.293 96.6882 101.021 96.3608 100.827C96.0298 100.636 95.7028 100.541 95.3797 100.542C95.0561 100.549 94.7534 100.672 94.4716 100.911Z" fill="#031600"/>
<path d="M89.6542 108.062L87.4121 104.066L89.3309 102.997L93.2112 109.914L91.3235 110.965L90.6328 109.734L90.5645 109.772C90.6362 110.268 90.5663 110.729 90.3546 111.156C90.1429 111.582 89.7783 111.939 89.2608 112.227C88.7806 112.495 88.3035 112.622 87.8295 112.61C87.3513 112.601 86.9041 112.457 86.4879 112.18C86.0717 111.903 85.7121 111.494 85.4089 110.954L82.9412 106.555L84.86 105.487L87.1368 109.545C87.3728 109.966 87.6676 110.235 88.0212 110.352C88.3772 110.473 88.7476 110.427 89.1326 110.212C89.3893 110.069 89.5846 109.885 89.7185 109.659C89.8547 109.437 89.9197 109.189 89.9135 108.917C89.9072 108.644 89.8208 108.359 89.6542 108.062Z" fill="#031600"/>
<path d="M80.4707 115.859L79.8954 114.303L84.3879 112.654L84.9632 114.21L80.4707 115.859ZM84.5959 116.354L82.5332 117.111L79.9763 110.194C79.8845 109.946 79.7609 109.783 79.6054 109.704C79.4515 109.629 79.2522 109.637 79.0074 109.727C78.9273 109.756 78.8408 109.795 78.7478 109.845C78.6548 109.894 78.576 109.94 78.5113 109.984L77.6138 108.561C77.8162 108.411 78.0185 108.282 78.2206 108.172C78.4183 108.065 78.6195 107.973 78.8242 107.898C79.5674 107.625 80.2095 107.599 80.7505 107.818C81.2932 108.042 81.6891 108.491 81.9382 109.165L84.5959 116.354Z" fill="#031600"/>
<path d="M74.3429 109.125C74.8357 109.026 75.297 109.023 75.7269 109.115C76.153 109.212 76.5123 109.41 76.8048 109.708C77.0973 110.006 77.2951 110.41 77.3982 110.919C77.4862 111.354 77.4803 111.732 77.3803 112.051C77.2813 112.374 77.1129 112.654 76.8752 112.889C76.6374 113.125 76.3536 113.324 76.0237 113.487C75.6937 113.65 75.3373 113.789 74.9543 113.904C74.5117 114.036 74.1576 114.151 73.8917 114.248C73.6258 114.345 73.4386 114.447 73.3299 114.556C73.2176 114.67 73.1778 114.808 73.2106 114.97L73.2176 115.005C73.2823 115.325 73.4347 115.552 73.6748 115.687C73.9104 115.823 74.2118 115.854 74.579 115.78C74.9649 115.702 75.2567 115.555 75.4545 115.337C75.6485 115.124 75.7565 114.881 75.7784 114.606L77.8121 114.364C77.8055 114.857 77.688 115.305 77.4598 115.707C77.2326 116.115 76.9029 116.458 76.4709 116.737C76.0351 117.023 75.5057 117.228 74.8827 117.353C74.4504 117.44 74.0263 117.472 73.6105 117.449C73.1948 117.427 72.8119 117.34 72.462 117.188C72.1083 117.042 71.8071 116.821 71.5583 116.524C71.3096 116.227 71.1388 115.849 71.046 115.39L69.9862 110.152L72.0433 109.739L72.2626 110.823L72.3184 110.811C72.3942 110.541 72.518 110.292 72.6898 110.064C72.8624 109.842 73.0844 109.648 73.3557 109.482C73.628 109.322 73.9571 109.203 74.3429 109.125ZM74.0231 110.737C73.707 110.8 73.4407 110.919 73.2242 111.092C73.0041 111.271 72.8482 111.481 72.7564 111.721C72.661 111.967 72.6405 112.224 72.6948 112.493L72.8621 113.319C72.9187 113.265 73.0038 113.207 73.1171 113.145C73.2259 113.085 73.3495 113.026 73.488 112.97C73.6265 112.913 73.7654 112.858 73.9049 112.806C74.0452 112.759 74.1717 112.714 74.2841 112.672C74.5323 112.584 74.7433 112.479 74.917 112.357C75.0917 112.24 75.2185 112.102 75.2973 111.941C75.3724 111.786 75.3893 111.607 75.3481 111.403C75.289 111.111 75.1371 110.91 74.8924 110.801C74.6476 110.691 74.3578 110.669 74.0231 110.737Z" fill="#031600"/>
<path d="M64.7699 110.214C65.5808 110.203 66.2803 110.365 66.8684 110.702C67.4565 111.044 67.9113 111.517 68.2328 112.122C68.5543 112.732 68.7207 113.439 68.7319 114.242C68.7433 115.054 68.5967 115.77 68.2923 116.388C67.9832 117.007 67.5394 117.493 66.9609 117.846C66.3825 118.199 65.6902 118.381 64.884 118.392C64.1917 118.402 63.5853 118.285 63.065 118.041C62.5398 117.798 62.1224 117.452 61.8126 117.003C61.5027 116.553 61.3293 116.022 61.2923 115.408L63.3693 115.379C63.4109 115.643 63.4948 115.874 63.6208 116.07C63.7469 116.267 63.9126 116.418 64.1181 116.524C64.3235 116.63 64.5613 116.681 64.8316 116.677C65.1731 116.673 65.4705 116.576 65.724 116.389C65.9728 116.206 66.1659 115.936 66.3032 115.58C66.4359 115.228 66.4987 114.802 66.4917 114.301C66.4847 113.8 66.41 113.371 66.2674 113.014C66.1202 112.657 65.9196 112.386 65.6656 112.2C65.4069 112.015 65.1068 111.925 64.7654 111.929C64.386 111.934 64.0676 112.057 63.8101 112.297C63.5526 112.541 63.396 112.874 63.3402 113.296L61.2632 113.324C61.288 112.719 61.4441 112.183 61.7317 111.716C62.0193 111.254 62.4197 110.889 62.933 110.622C63.4463 110.36 64.0586 110.224 64.7699 110.214Z" fill="#031600"/>
<path d="M54.7655 117.478L54.9939 115.835L59.7362 116.49L59.5077 118.133L54.7655 117.478ZM58.1699 119.851L55.9926 119.551L57.0079 112.249C57.0443 111.987 57.0126 111.785 56.9128 111.642C56.8122 111.505 56.6328 111.418 56.3744 111.382C56.2899 111.37 56.1949 111.364 56.0896 111.364C55.9843 111.364 55.8928 111.368 55.815 111.376L55.6963 109.7C55.9456 109.663 56.1853 109.644 56.4153 109.642C56.6407 109.64 56.8614 109.653 57.0775 109.683C57.862 109.791 58.441 110.069 58.8144 110.517C59.1872 110.969 59.3242 111.551 59.2253 112.262L58.1699 119.851Z" fill="#031600"/>
<path d="M40.3952 115.556L38.3418 114.663L41.0954 108.382C41.4048 107.676 41.8458 107.131 42.4183 106.746C42.9845 106.363 43.6342 106.156 44.3674 106.125C45.1006 106.093 45.8692 106.252 46.6732 106.602C47.4772 106.952 48.1167 107.406 48.5917 107.963C49.0666 108.521 49.3557 109.136 49.4587 109.81C49.5598 110.488 49.4557 111.18 49.1462 111.886L46.3926 118.167L44.3456 117.276L47.0253 111.164C47.1866 110.796 47.2483 110.431 47.2104 110.069C47.1705 109.711 47.0389 109.386 46.8155 109.093C46.5902 108.804 46.2799 108.574 45.8844 108.401C45.4846 108.227 45.1018 108.156 44.736 108.188C44.3683 108.224 44.0415 108.35 43.7554 108.565C43.463 108.784 43.2362 109.077 43.0748 109.445L40.3952 115.556Z" fill="#031600"/>
<path d="M32.0565 104.578L33.7637 105.648C33.6598 105.882 33.6479 106.138 33.7281 106.416C33.8055 106.698 34.0004 106.95 34.3127 107.173C34.5903 107.371 34.865 107.48 35.1368 107.499C35.4047 107.516 35.6077 107.429 35.7457 107.236C35.8562 107.083 35.8916 106.908 35.8522 106.711C35.8061 106.515 35.6567 106.281 35.404 106.008L34.3955 104.94C33.8581 104.364 33.5373 103.825 33.4332 103.32C33.329 102.816 33.4439 102.331 33.778 101.866C34.0845 101.44 34.4757 101.155 34.9516 101.013C35.4248 100.874 35.9422 100.868 36.5038 100.995C37.0627 101.127 37.6217 101.392 38.1808 101.791C39.0368 102.401 39.5909 103.067 39.8431 103.787C40.0915 104.505 40.0386 105.2 39.6844 105.871L37.8656 104.713C37.9956 104.41 38.0066 104.119 37.8989 103.839C37.7912 103.558 37.5773 103.304 37.2573 103.076C36.9449 102.853 36.6482 102.734 36.367 102.72C36.082 102.702 35.8719 102.788 35.7366 102.976C35.5075 103.295 35.6305 103.708 36.1056 104.216L37.0563 105.242C37.5937 105.818 37.9062 106.369 37.9938 106.896C38.0814 107.424 37.9526 107.927 37.6075 108.408C37.3093 108.823 36.9388 109.099 36.4959 109.236C36.0531 109.373 35.5693 109.377 35.0446 109.247C34.5161 109.114 33.9761 108.851 33.4247 108.457C32.6072 107.874 32.0895 107.243 31.8714 106.565C31.6467 105.887 31.7084 105.225 32.0565 104.578Z" fill="#031600"/>
<path d="M26.4176 97.3719L24.7864 98.543L26.7184 99.1114L26.2362 100.421L24.4043 99.5945L24.8775 101.542L23.486 101.779L23.2853 99.7817L21.8265 101.16L20.9417 100.096L22.5684 98.9193L20.6364 98.3508L21.1341 97.0383L22.9614 97.8587L22.4928 95.9172L23.8688 95.6836L24.0695 97.6806L25.5328 96.3075L26.4176 97.3719Z" fill="#031600"/>
<path d="M22.9803 82.6717C23.344 83.5343 23.4732 84.3898 23.368 85.2384C23.2628 86.0871 22.92 86.866 22.3394 87.5753C21.7588 88.2846 20.9395 88.8607 19.8814 89.3035C18.8145 89.7499 17.8236 89.9314 16.9088 89.8479C15.9878 89.7618 15.1886 89.4582 14.5111 88.9371C13.8274 88.4135 13.3056 87.7248 12.9456 86.871C12.7069 86.3046 12.5664 85.7459 12.5244 85.1946C12.4779 84.6452 12.5297 84.1213 12.6797 83.6229C12.8234 83.122 13.0665 82.6616 13.409 82.2415C13.747 81.8233 14.1843 81.4635 14.7208 81.1621L15.5968 83.2401C15.3466 83.3909 15.1392 83.57 14.9745 83.7772C14.808 83.9802 14.69 84.2064 14.6203 84.4559C14.5487 84.7011 14.5241 84.9599 14.5464 85.2325C14.5625 85.5025 14.6303 85.7791 14.7496 86.0622C14.959 86.5588 15.2704 86.9436 15.6837 87.2165C16.0909 87.4868 16.5769 87.6268 17.1416 87.6365C17.7002 87.6436 18.3205 87.5044 19.0026 87.219C19.6978 86.9281 20.2396 86.5783 20.6281 86.1698C21.0121 85.7631 21.2454 85.3221 21.328 84.8468C21.4105 84.3715 21.348 83.8878 21.1405 83.3955C21.0248 83.1211 20.8802 82.8818 20.7067 82.6776C20.5332 82.4735 20.3379 82.3092 20.1209 82.1848C19.9038 82.0604 19.669 81.9793 19.4165 81.9415C19.1577 81.9011 18.888 81.9141 18.6073 81.9803L17.7312 79.9024C18.2036 79.7662 18.6925 79.7179 19.1979 79.7575C19.7014 79.7928 20.1934 79.9226 20.6737 80.147C21.1497 80.3731 21.5886 80.6943 21.9903 81.1104C22.3877 81.5283 22.7177 82.0488 22.9803 82.6717Z" fill="#031600"/>
<path d="M20.3097 73.5369C20.4508 74.3229 20.405 75.0343 20.1724 75.6709C19.9342 76.3037 19.542 76.8296 18.9957 77.2485C18.4439 77.6636 17.7665 77.9426 16.9636 78.0857C16.1512 78.2303 15.4164 78.2028 14.7591 78.0031C14.0963 77.7996 13.5455 77.4417 13.1067 76.9295C12.6624 76.4135 12.3697 75.7624 12.2287 74.9764C12.0868 74.1857 12.1349 73.4739 12.373 72.8411C12.6056 72.2045 12.9979 71.6786 13.5497 71.2635C14.096 70.8446 14.7753 70.5628 15.5876 70.4181C16.3906 70.2751 17.1235 70.3054 17.7863 70.5089C18.4436 70.7086 18.9944 71.0665 19.4387 71.5825C19.8775 72.0947 20.1678 72.7462 20.3097 73.5369ZM18.6126 73.8248C18.5483 73.4667 18.3941 73.1845 18.15 72.9784C17.9011 72.7732 17.5885 72.6417 17.212 72.5839C16.8346 72.5215 16.4196 72.5307 15.9667 72.6114C15.5092 72.6928 15.1167 72.8276 14.7891 73.0155C14.4606 73.1988 14.2177 73.4293 14.0604 73.7069C13.9031 73.9845 13.8565 74.3024 13.9208 74.6606C13.9859 75.0233 14.1409 75.3101 14.3859 75.5209C14.6301 75.727 14.9385 75.8616 15.3112 75.9249C15.683 75.9834 16.0977 75.9719 16.5552 75.8905C17.008 75.8098 17.401 75.6774 17.7341 75.4933C18.0663 75.3045 18.3135 75.0709 18.4755 74.7924C18.632 74.5101 18.6777 74.1876 18.6126 73.8248Z" fill="#031600"/>
<path d="M14.8378 66.0379L19.4325 66.1198L19.3932 68.3094L11.4414 68.1678L11.48 66.0136L12.8954 66.0388L12.8968 65.9608C12.4306 65.7729 12.0659 65.4805 11.8027 65.0836C11.5394 64.6867 11.4131 64.193 11.4237 63.6024C11.4335 63.0544 11.563 62.5794 11.8121 62.1775C12.0613 61.7708 12.4108 61.458 12.8606 61.2392C13.3104 61.0204 13.8459 60.9165 14.467 60.9275L19.5241 61.0176L19.4848 63.2073L14.8189 63.1242C14.3353 63.1156 13.9537 63.234 13.6742 63.4795C13.3899 63.7249 13.2439 64.0673 13.236 64.5066C13.2307 64.7995 13.2924 65.0605 13.4211 65.2897C13.5451 65.5187 13.7268 65.6991 13.9664 65.831C14.2059 65.9629 14.4964 66.0318 14.8378 66.0379Z" fill="#031600"/>
<path d="M12.6895 54.209L14.3292 54.495L13.5036 59.1934L11.8639 58.9074L12.6895 54.209ZM10.1877 57.5141L10.5668 55.3569L17.8542 56.628C18.1158 56.6737 18.3199 56.6493 18.4664 56.555C18.6083 56.4598 18.7018 56.2842 18.7468 56.0282C18.7615 55.9445 18.7708 55.8502 18.7748 55.7453C18.7788 55.6405 18.778 55.5492 18.7724 55.4715L20.4582 55.413C20.4865 55.6625 20.4974 55.9019 20.4909 56.131C20.4851 56.3554 20.4634 56.5747 20.4258 56.7888C20.2892 57.566 19.9899 58.1326 19.5277 58.4885C19.0609 58.8436 18.4725 58.9592 17.7624 58.8354L10.1877 57.5141Z" fill="#031600"/>
<path d="M21.6074 52.3241C21.4459 52.7984 21.2174 53.1977 20.9218 53.5219C20.6232 53.8401 20.2711 54.0504 19.8657 54.1529C19.4602 54.2554 19.0105 54.2232 18.5164 54.0563C18.0942 53.9136 17.7698 53.7192 17.5431 53.473C17.312 53.2253 17.1538 52.9398 17.0685 52.6166C16.9832 52.2934 16.9527 51.9489 16.9771 51.5829C17.0015 51.217 17.0597 50.84 17.1517 50.452C17.259 50.0043 17.3374 49.6416 17.3869 49.3639C17.4363 49.0863 17.4412 48.8734 17.4014 48.7252C17.3587 48.5711 17.2588 48.4675 17.1016 48.4144L17.0679 48.403C16.758 48.2983 16.4842 48.3156 16.2466 48.4548C16.0104 48.5895 15.8322 48.8337 15.7118 49.1872C15.5854 49.5586 15.5672 49.8842 15.6573 50.1641C15.7443 50.438 15.9014 50.6532 16.1286 50.8098L15.3179 52.6838C14.8933 52.4305 14.5636 52.1046 14.3287 51.7059C14.0893 51.3057 13.9567 50.8493 13.9309 50.3367C13.9021 49.8181 13.9898 49.2589 14.1939 48.6593C14.3355 48.2432 14.5205 47.8616 14.7487 47.5147C14.977 47.1677 15.2447 46.8815 15.5518 46.6559C15.856 46.4244 16.1994 46.276 16.5822 46.2108C16.965 46.1455 17.3787 46.188 17.8233 46.3382L22.9029 48.0544L22.229 50.0345L21.178 49.6794L21.1597 49.7331C21.3566 49.9343 21.5107 50.166 21.6218 50.428C21.7284 50.6886 21.7854 50.9773 21.7927 51.2941C21.7956 51.6093 21.7338 51.9527 21.6074 52.3241ZM20.369 51.2396C20.4726 50.9353 20.5033 50.6464 20.4613 50.3727C20.4162 50.0931 20.3125 49.8535 20.1501 49.6539C19.9847 49.4483 19.7717 49.3016 19.5112 49.2136L18.7096 48.9427C18.7287 49.019 18.7364 49.1214 18.7327 49.2499C18.7306 49.3739 18.7193 49.5098 18.6991 49.6576C18.6788 49.8054 18.6563 49.9525 18.6315 50.0988C18.6023 50.2436 18.5776 50.3749 18.5575 50.4929C18.5097 50.7511 18.4949 50.9856 18.5133 51.1964C18.5272 51.4057 18.5841 51.5845 18.6838 51.7329C18.7805 51.8754 18.9277 51.98 19.1253 52.0468C19.4082 52.1424 19.6589 52.1123 19.8771 51.9565C20.0954 51.8008 20.2594 51.5618 20.369 51.2396Z" fill="#031600"/>
<path d="M25.4712 43.5289C25.0727 44.2326 24.5794 44.7528 23.9912 45.0895C23.3989 45.4239 22.7595 45.5771 22.0729 45.5492C21.3821 45.519 20.6856 45.3065 19.9834 44.9118C19.273 44.5125 18.7262 44.0261 18.3431 43.4527C17.9622 42.8752 17.7644 42.2486 17.7495 41.5729C17.7346 40.8973 17.9252 40.2096 18.3214 39.5101C18.6616 38.9092 19.0682 38.4461 19.5411 38.1206C20.0163 37.7909 20.5268 37.6059 21.0724 37.5654C21.6181 37.5249 22.1664 37.6432 22.7173 37.9204L21.6967 39.7228C21.4467 39.6257 21.2047 39.5819 20.9706 39.5914C20.7366 39.6009 20.5219 39.6674 20.3267 39.791C20.1315 39.9145 19.9675 40.0936 19.8347 40.3281C19.6669 40.6244 19.6006 40.929 19.6359 41.2417C19.6693 41.5481 19.806 41.85 20.0459 42.1476C20.284 42.4388 20.6219 42.7074 21.0597 42.9535C21.4976 43.1996 21.9072 43.3512 22.2887 43.4083C22.6725 43.4613 23.0088 43.4252 23.2975 43.2999C23.5886 43.1706 23.818 42.9578 23.9858 42.6615C24.1722 42.3322 24.2263 41.9964 24.1479 41.654C24.0654 41.3093 23.8555 41.0068 23.5182 40.7467L24.5389 38.9442C25.0513 39.2702 25.4376 39.6745 25.6979 40.1572C25.9541 40.6376 26.0688 41.1659 26.0419 41.7421C26.011 42.316 25.8207 42.9117 25.4712 43.5289Z" fill="#031600"/>
<path d="M24.1802 31.3081L25.4898 32.3317L22.5348 36.0845L21.2251 35.0608L24.1802 31.3081ZM20.4081 33.044L21.7649 31.321L27.5857 35.8706C27.7946 36.034 27.986 36.1085 28.16 36.0943C28.3302 36.0772 28.4958 35.9664 28.6568 35.762C28.7095 35.6951 28.7624 35.6163 28.8156 35.5258C28.8688 35.4353 28.9114 35.3544 28.9433 35.2833L30.4569 36.025C30.3636 36.2583 30.2597 36.4744 30.1453 36.6733C30.0339 36.8684 29.9108 37.0515 29.7762 37.2225C29.2873 37.8433 28.7548 38.2018 28.1788 38.298C27.599 38.3913 27.0255 38.2163 26.4583 37.773L20.4081 33.044Z" fill="#031600"/>
<path d="M33.0598 19.8913L34.8651 18.5688L38.9401 24.0904C39.3981 24.7109 39.6508 25.3644 39.6983 26.0509C39.7469 26.7309 39.6011 27.3948 39.2611 28.0427C38.921 28.6906 38.3976 29.2735 37.6907 29.7913C36.9839 30.3091 36.2694 30.6331 35.5473 30.7634C34.8252 30.8936 34.1456 30.8342 33.5087 30.5853C32.8689 30.3326 32.3201 29.8961 31.8621 29.2756L27.7871 23.754L29.5867 22.4357L33.5522 27.8088C33.791 28.1323 34.0771 28.3685 34.4105 28.5171C34.7411 28.662 35.0897 28.7116 35.4563 28.6659C35.82 28.6164 36.1757 28.4643 36.5234 28.2096C36.8749 27.9521 37.1286 27.6578 37.2845 27.3266C37.4376 26.9916 37.4921 26.6467 37.448 26.2919C37.405 25.9305 37.264 25.588 37.0252 25.2645L33.0598 19.8913Z" fill="#031600"/>
<path d="M46.7684 18.2023L44.9838 19.1384C44.8327 18.9317 44.6164 18.7932 44.3347 18.723C44.0511 18.6486 43.7343 18.6902 43.3842 18.8478C43.0731 18.988 42.841 19.1703 42.6878 19.3949C42.539 19.6175 42.5135 19.8364 42.6112 20.0517C42.6893 20.2239 42.8237 20.3422 43.0143 20.4068C43.2073 20.465 43.4858 20.4536 43.8498 20.3726L45.2829 20.0382C46.0517 19.863 46.6813 19.8568 47.1716 20.0197C47.6619 20.1826 48.0252 20.5245 48.2616 21.0454C48.4785 21.5233 48.5297 22.0032 48.4153 22.4852C48.299 22.9628 48.0447 23.4118 47.6525 23.8322C47.2584 24.2482 46.7481 24.5974 46.1215 24.8796C45.1622 25.3118 44.3064 25.4561 43.5543 25.3127C42.8065 25.1673 42.2298 24.7737 41.824 24.132L43.7412 23.1439C43.9389 23.4075 44.1864 23.563 44.4838 23.6106C44.7812 23.6581 45.1093 23.6011 45.4679 23.4395C45.818 23.2818 46.0698 23.0854 46.2233 22.8503C46.3812 22.6133 46.4122 22.3893 46.3165 22.1783C46.1543 21.821 45.7338 21.72 45.0549 21.8755L43.6866 22.1807C42.9178 22.3559 42.2823 22.3492 41.7803 22.1605C41.2783 21.9718 40.9052 21.6083 40.661 21.0701C40.45 20.6052 40.3957 20.1473 40.4983 19.6967C40.6009 19.246 40.8402 18.8271 41.2162 18.4399C41.5965 18.0508 42.0956 17.7171 42.7136 17.4387C43.6297 17.0261 44.4371 16.8957 45.1358 17.0476C45.8369 17.1933 46.3811 17.5782 46.7684 18.2023Z" fill="#031600"/>
<path d="M55.8641 16.9647L55.6698 14.9709L54.2041 16.3477L53.3118 15.2736L54.9503 14.1125L53.0236 13.5395L53.5186 12.2223L55.3514 13.055L54.8904 11.1052L56.259 10.8794L56.4603 12.8721L57.926 11.4952L58.8136 12.5845L57.1821 13.7444L59.1018 14.3185L58.6115 15.6207L56.7787 14.7879L57.2327 16.7389L55.8641 16.9647Z" fill="#031600"/>
</g>
<defs>
<clipPath id="clip0_801_418">
<rect width="130" height="130" fill="white"/>
</clipPath>
</defs>
</svg>
