<svg width="50" height="50" viewBox="0 0 50 50" fill="none" xmlns="http://www.w3.org/2000/svg">
<circle cx="25" cy="25" r="25" fill="#89EA5F"/>
<path d="M29.3013 29.541C31.8832 26.9828 31.8832 22.8351 29.3013 20.2769C26.7193 17.7187 22.5331 17.7187 19.9511 20.2769C17.3692 22.8351 17.3692 26.9828 19.9511 29.541C22.5331 32.0992 26.7193 32.0992 29.3013 29.541Z" fill="#031600"/>
<path d="M21.4353 16.3251C21.4353 12.8319 24.2934 10 27.8191 10C27.8187 13.4932 24.9609 16.3251 21.4353 16.3251Z" fill="#031600"/>
<path d="M16.6136 20.366C14.3473 17.6902 14.6996 13.7006 17.4002 11.4551C19.6665 14.1313 19.3142 18.1205 16.6136 20.366Z" fill="#031600"/>
<path d="M15.5408 26.5325C12.0688 25.926 9.75032 22.6455 10.3628 19.2054C13.8348 19.8119 16.1529 23.0927 15.5408 26.5325Z" fill="#031600"/>
<path d="M16.6136 20.366C14.3473 17.6902 14.6996 13.7006 17.4002 11.4551C19.6665 14.1313 19.3142 18.1205 16.6136 20.366Z" fill="#031600"/>
<path d="M18.7204 31.9396C15.667 33.6862 11.7628 32.6498 10 29.6245C13.0533 27.8779 16.9576 28.9144 18.7204 31.9396Z" fill="#031600"/>
<path d="M18.7204 31.9396C15.667 33.6862 11.7628 32.6498 10 29.6245C13.0533 27.8779 16.9576 28.9144 18.7204 31.9396Z" fill="#031600"/>
<path d="M24.6631 34.0568C23.4574 37.3393 19.7941 39.0318 16.481 37.8372C17.6871 34.5542 21.35 32.8618 24.6631 34.0568Z" fill="#031600"/>
<path d="M24.6631 34.0568C23.4574 37.3393 19.7941 39.0318 16.481 37.8372C17.6871 34.5542 21.35 32.8618 24.6631 34.0568Z" fill="#031600"/>
<path d="M30.5898 31.8932C31.7955 35.1758 30.0873 38.8054 26.7742 40C25.5685 36.7178 27.2767 33.0882 30.5898 31.8932Z" fill="#031600"/>
<path d="M30.5898 31.8932C31.7955 35.1758 30.0873 38.8054 26.7742 40C25.5685 36.7178 27.2767 33.0882 30.5898 31.8932Z" fill="#031600"/>
<path d="M33.7259 26.4619C36.7792 28.2084 37.8253 32.0768 36.0625 35.102C33.0091 33.3554 31.9631 29.4871 33.7259 26.4619Z" fill="#031600"/>
<path d="M33.7259 26.4619C36.7792 28.2084 37.8253 32.0768 36.0625 35.102C33.0091 33.3554 31.9631 29.4871 33.7259 26.4619Z" fill="#031600"/>
<path d="M32.6049 20.3038C36.077 19.6973 39.3879 21.9941 40 25.4342C36.528 26.041 33.217 23.7439 32.6049 20.3038Z" fill="#031600"/>
<path d="M32.6049 20.3038C36.077 19.6973 39.3879 21.9941 40 25.4342C36.528 26.041 33.217 23.7439 32.6049 20.3038Z" fill="#031600"/>
<path d="M27.7507 16.3005C30.017 13.6247 34.0437 13.2756 36.7443 15.521C34.4783 18.1968 30.4517 18.5459 27.7507 16.3005Z" fill="#031600"/>
</svg>
