<svg width="131" height="50" viewBox="0 0 131 50" fill="none" xmlns="http://www.w3.org/2000/svg">
<path d="M71.6611 34.2539C69.9261 34.2539 68.3984 33.8604 67.0781 33.0732C65.7663 32.2861 64.7422 31.1689 64.0059 29.7217C63.2695 28.2744 62.9014 26.5563 62.9014 24.5674C62.9014 22.5361 63.278 20.7926 64.0312 19.3369C64.793 17.8812 65.8255 16.7682 67.1289 15.998C68.4323 15.2194 69.9092 14.8301 71.5596 14.8301C72.609 14.8301 73.5824 14.9824 74.4795 15.2871C75.3851 15.5918 76.1891 16.0277 76.8916 16.5947C77.5941 17.1533 78.1696 17.8177 78.6182 18.5879C79.0752 19.3581 79.3799 20.2044 79.5322 21.127H76.041C75.8887 20.6276 75.6771 20.179 75.4062 19.7812C75.1439 19.3835 74.8223 19.0449 74.4414 18.7656C74.069 18.4779 73.6458 18.262 73.1719 18.1182C72.6979 17.9743 72.1732 17.9023 71.5977 17.9023C70.5905 17.9023 69.6891 18.1605 68.8936 18.6768C68.098 19.1846 67.4717 19.9336 67.0146 20.9238C66.5661 21.9056 66.3418 23.1074 66.3418 24.5293C66.3418 25.9596 66.5661 27.1699 67.0146 28.1602C67.4632 29.1504 68.0895 29.9036 68.8936 30.4199C69.6976 30.9277 70.6286 31.1816 71.6865 31.1816C72.6429 31.1816 73.4723 30.9997 74.1748 30.6357C74.8773 30.2633 75.4189 29.7386 75.7998 29.0615C76.1807 28.3844 76.3711 27.5846 76.3711 26.6621L77.1582 26.7891H72.0166V24.1104H79.6973V26.3701C79.6973 27.9951 79.3545 29.3958 78.6689 30.5723C77.9834 31.7487 77.0312 32.6585 75.8125 33.3018C74.6022 33.9365 73.2184 34.2539 71.6611 34.2539ZM81.8936 34V19.8066H85.1309V22.1934H85.2832C85.5371 21.3639 85.9814 20.7292 86.6162 20.2891C87.251 19.8405 87.9746 19.6162 88.7871 19.6162C88.9648 19.6162 89.168 19.6247 89.3965 19.6416C89.6335 19.6585 89.8281 19.6797 89.9805 19.7051V22.7773C89.8366 22.7266 89.6123 22.6842 89.3076 22.6504C89.0029 22.6165 88.7109 22.5996 88.4316 22.5996C87.8138 22.5996 87.2637 22.7308 86.7812 22.9932C86.2988 23.2555 85.918 23.6152 85.6387 24.0723C85.3678 24.5293 85.2324 25.0625 85.2324 25.6719V34H81.8936ZM96.9375 34.2793C95.5156 34.2793 94.2884 33.9831 93.2559 33.3906C92.2233 32.7897 91.4277 31.9434 90.8691 30.8516C90.319 29.7598 90.0439 28.4733 90.0439 26.9922C90.0439 25.528 90.319 24.2458 90.8691 23.1455C91.4193 22.0368 92.1937 21.1735 93.1924 20.5557C94.1911 19.9378 95.3675 19.6289 96.7217 19.6289C97.5934 19.6289 98.4186 19.7686 99.1973 20.0479C99.9844 20.3271 100.678 20.7588 101.279 21.3428C101.889 21.9268 102.367 22.6715 102.714 23.5771C103.061 24.4743 103.234 25.5449 103.234 26.7891V27.8301H91.6055V25.583H101.571L100.01 26.2432C100.01 25.4391 99.887 24.7409 99.6416 24.1484C99.3962 23.5475 99.0322 23.0778 98.5498 22.7393C98.0674 22.4007 97.4665 22.2314 96.7471 22.2314C96.0277 22.2314 95.4141 22.4007 94.9062 22.7393C94.3984 23.0778 94.0133 23.5348 93.751 24.1104C93.4886 24.6774 93.3574 25.3122 93.3574 26.0146V27.5762C93.3574 28.4395 93.5055 29.18 93.8018 29.7979C94.1064 30.4072 94.5296 30.8727 95.0713 31.1943C95.6214 31.516 96.2604 31.6768 96.9883 31.6768C97.4622 31.6768 97.8939 31.609 98.2832 31.4736C98.681 31.3382 99.0195 31.1351 99.2988 30.8643C99.5866 30.585 99.8066 30.2422 99.959 29.8359L103.082 30.2041C102.879 31.0251 102.502 31.7445 101.952 32.3623C101.41 32.9717 100.712 33.4456 99.8574 33.7842C99.0111 34.1143 98.0378 34.2793 96.9375 34.2793ZM117.237 19.8066L112.185 34H108.478L103.438 19.8066H107.005L110.293 30.3564H110.445L113.708 19.8066H117.237ZM122.265 34.292C121.359 34.292 120.547 34.1312 119.827 33.8096C119.108 33.4795 118.541 32.9971 118.126 32.3623C117.711 31.7275 117.504 30.9447 117.504 30.0137C117.504 29.2181 117.652 28.5579 117.948 28.0332C118.244 27.5085 118.646 27.0895 119.154 26.7764C119.671 26.4632 120.25 26.2262 120.894 26.0654C121.537 25.8962 122.201 25.7777 122.887 25.71C123.725 25.6169 124.402 25.5365 124.918 25.4688C125.434 25.401 125.807 25.291 126.035 25.1387C126.272 24.9863 126.391 24.7493 126.391 24.4277V24.3643C126.391 23.6787 126.188 23.1455 125.781 22.7646C125.375 22.3838 124.783 22.1934 124.004 22.1934C123.183 22.1934 122.531 22.3711 122.049 22.7266C121.575 23.082 121.253 23.501 121.084 23.9834L117.974 23.5391C118.219 22.6758 118.625 21.9564 119.192 21.3809C119.759 20.7969 120.449 20.361 121.262 20.0732C122.083 19.777 122.988 19.6289 123.979 19.6289C124.656 19.6289 125.333 19.7093 126.01 19.8701C126.687 20.0225 127.309 20.2848 127.876 20.6572C128.443 21.0296 128.896 21.529 129.234 22.1553C129.573 22.7816 129.742 23.5645 129.742 24.5039V34H126.53V32.0449H126.429C126.226 32.4342 125.938 32.8024 125.565 33.1494C125.201 33.488 124.744 33.763 124.194 33.9746C123.653 34.1862 123.009 34.292 122.265 34.292ZM123.115 31.8291C123.792 31.8291 124.376 31.6979 124.867 31.4355C125.358 31.1647 125.739 30.8092 126.01 30.3691C126.281 29.9206 126.416 29.4339 126.416 28.9092V27.2461C126.306 27.3307 126.128 27.4111 125.883 27.4873C125.637 27.555 125.358 27.6185 125.045 27.6777C124.732 27.737 124.423 27.7878 124.118 27.8301C123.822 27.8724 123.564 27.9062 123.344 27.9316C122.844 27.9993 122.396 28.1136 121.998 28.2744C121.609 28.4268 121.3 28.6383 121.071 28.9092C120.843 29.18 120.729 29.5312 120.729 29.9629C120.729 30.5807 120.953 31.0462 121.401 31.3594C121.85 31.6725 122.421 31.8291 123.115 31.8291Z" fill="white"/>
<circle cx="25" cy="25" r="25" fill="#89EA5F"/>
<path d="M29.3013 29.541C31.8832 26.9828 31.8832 22.8351 29.3013 20.2769C26.7193 17.7187 22.5331 17.7187 19.9511 20.2769C17.3692 22.8351 17.3692 26.9828 19.9511 29.541C22.5331 32.0992 26.7193 32.0992 29.3013 29.541Z" fill="#031600"/>
<path d="M21.4353 16.3251C21.4353 12.8319 24.2934 10 27.8191 10C27.8187 13.4932 24.9609 16.3251 21.4353 16.3251Z" fill="#031600"/>
<path d="M16.6136 20.366C14.3473 17.6902 14.6996 13.7006 17.4002 11.4551C19.6665 14.1313 19.3142 18.1205 16.6136 20.366Z" fill="#031600"/>
<path d="M15.5408 26.5325C12.0688 25.926 9.75032 22.6455 10.3628 19.2054C13.8348 19.8119 16.1529 23.0927 15.5408 26.5325Z" fill="#031600"/>
<path d="M16.6136 20.366C14.3473 17.6902 14.6996 13.7006 17.4002 11.4551C19.6665 14.1313 19.3142 18.1205 16.6136 20.366Z" fill="#031600"/>
<path d="M18.7204 31.9396C15.667 33.6862 11.7628 32.6498 10 29.6245C13.0533 27.8779 16.9576 28.9144 18.7204 31.9396Z" fill="#031600"/>
<path d="M18.7204 31.9396C15.667 33.6862 11.7628 32.6498 10 29.6245C13.0533 27.8779 16.9576 28.9144 18.7204 31.9396Z" fill="#031600"/>
<path d="M24.6631 34.0568C23.4574 37.3393 19.7941 39.0318 16.481 37.8372C17.6871 34.5542 21.35 32.8618 24.6631 34.0568Z" fill="#031600"/>
<path d="M24.6631 34.0568C23.4574 37.3393 19.7941 39.0318 16.481 37.8372C17.6871 34.5542 21.35 32.8618 24.6631 34.0568Z" fill="#031600"/>
<path d="M30.5898 31.8932C31.7955 35.1758 30.0873 38.8054 26.7742 40C25.5685 36.7178 27.2767 33.0882 30.5898 31.8932Z" fill="#031600"/>
<path d="M30.5898 31.8932C31.7955 35.1758 30.0873 38.8054 26.7742 40C25.5685 36.7178 27.2767 33.0882 30.5898 31.8932Z" fill="#031600"/>
<path d="M33.7259 26.4619C36.7792 28.2084 37.8253 32.0768 36.0625 35.102C33.0091 33.3554 31.9631 29.4871 33.7259 26.4619Z" fill="#031600"/>
<path d="M33.7259 26.4619C36.7792 28.2084 37.8253 32.0768 36.0625 35.102C33.0091 33.3554 31.9631 29.4871 33.7259 26.4619Z" fill="#031600"/>
<path d="M32.6049 20.3038C36.077 19.6973 39.3879 21.9941 40 25.4342C36.528 26.041 33.217 23.7439 32.6049 20.3038Z" fill="#031600"/>
<path d="M32.6049 20.3038C36.077 19.6973 39.3879 21.9941 40 25.4342C36.528 26.041 33.217 23.7439 32.6049 20.3038Z" fill="#031600"/>
<path d="M27.7507 16.3005C30.017 13.6247 34.0437 13.2756 36.7443 15.521C34.4783 18.1968 30.4517 18.5459 27.7507 16.3005Z" fill="#031600"/>
</svg>
