<svg width="41" height="41" viewBox="0 0 41 41" fill="none" xmlns="http://www.w3.org/2000/svg">
<path d="M28.3848 37.3438H26.8076C26.5186 37.3437 26.2748 37.244 26.0527 37.0225C25.8309 36.8005 25.7314 36.5561 25.7314 36.2666V33.1123C25.7315 32.8589 25.8077 32.6407 25.9756 32.4414L26.0527 32.3574C26.2748 32.1356 26.5184 32.0362 26.8076 32.0361H28.3848C30.2585 32.0361 31.8726 31.3672 33.1982 30.042C34.5239 28.7163 35.1923 27.1024 35.1924 25.2285V24.4404C35.1924 23.7506 34.977 23.1387 34.5518 22.625L34.3564 22.4111C33.8016 21.8563 33.1153 21.5742 32.3271 21.5742H26.8076C25.6248 21.5742 24.6353 21.1655 23.8105 20.3408C22.9852 19.5154 22.5762 18.5269 22.5762 17.3438V7.88281C22.5762 6.69933 22.9848 5.71017 23.8096 4.88477C24.6348 4.05983 25.6248 3.65137 26.8076 3.65137H36.2695C37.4523 3.65145 38.4416 4.06002 39.2666 4.88477C40.0917 5.71017 40.5 6.69912 40.5 7.88281V25.2285C40.5 26.8698 40.1802 28.4327 39.542 29.9219C38.9004 31.4191 38.0362 32.7083 36.9502 33.7939C35.864 34.8801 34.575 35.7451 33.0781 36.3867L33.0791 36.3877C31.5896 37.0257 30.0262 37.3437 28.3848 37.3438Z" stroke="#89EA5F"/>
<path d="M6.30627 37.3438H4.7301C4.44059 37.3438 4.19598 37.244 3.97424 37.0225C3.75231 36.8003 3.65295 36.5558 3.65295 36.2666V33.1123C3.65301 32.8233 3.75319 32.5797 3.97522 32.3574C4.19684 32.1359 4.44061 32.0361 4.7301 32.0361H6.30627C8.06368 32.0361 9.59163 31.4477 10.8678 30.2822L11.1198 30.041C12.4447 28.7154 13.1138 27.1023 13.1139 25.2285V24.4404C13.1139 23.7508 12.8989 23.1388 12.4733 22.625L12.278 22.4111C11.7236 21.8559 11.0363 21.5742 10.2487 21.5742H4.7301C3.62095 21.5742 2.68186 21.2156 1.88928 20.4912L1.73206 20.3408C0.907566 19.5155 0.499597 18.527 0.499634 17.3438V7.88281C0.499634 6.69903 0.907756 5.71003 1.73303 4.88477C2.55771 4.06001 3.547 3.65143 4.7301 3.65137H14.192C15.3011 3.65141 16.2402 4.00995 17.0328 4.73438L17.1891 4.88477C18.0139 5.71024 18.4225 6.69929 18.4225 7.88281V25.2285C18.4224 26.8696 18.1025 28.4326 17.4645 29.9219C16.8232 31.419 15.9589 32.7083 14.8727 33.7939C13.7865 34.8802 12.4982 35.7451 11.0016 36.3867V36.3857C9.51151 37.0238 7.94872 37.3437 6.30627 37.3438Z" stroke="#89EA5F"/>
</svg>
